%
M48
M72
T01C0.01378
T02C0.02362
T03C0.03150
T04C0.05906
T05C0.06299
T06C0.09000
T07C0.09843
T08C0.11811
T09C0.25000
%
T01
X21300Y23300
X68206Y40300
X110206Y56300
X122206Y45300
X134206Y57300
X122206Y68300
X151300Y98300
X151300Y118300
X180300Y140300
X180300Y150300
X188300Y113300
X205300Y97300
X205300Y79300
X224300Y79300
X224300Y67300
X236300Y58300
X224300Y97300
X224300Y109300
X224300Y118300
X234300Y118300
X252300Y118300
X266300Y103300
X273300Y115300
X281300Y103300
X357300Y134300
X299300Y195300
X287300Y195300
X278300Y172300
X267300Y172300
X267300Y145300
X279300Y145300
X261300Y212300
X266300Y226300
X272300Y227300
X287300Y249300
X299300Y249300
X268040Y255040
X268300Y291300
X259300Y291300
X234158Y315300
X234158Y325300
X215300Y332300
X210300Y349300
X220300Y364300
X225300Y364300
X230300Y364300
X260300Y361300
X275300Y361300
X287300Y335300
X301300Y335300
X301300Y320300
X287300Y320300
X287300Y305300
X301300Y305300
X331300Y384300
X339300Y384300
X357300Y395300
X214300Y119300
X265300Y62300
X265300Y58300
X265300Y54300
X267300Y49300
X275300Y49300
X284300Y49300
X292300Y49300
X300300Y49300
X308300Y49300
X316300Y49300
X324300Y49300
X308300Y62300
X300300Y62300
X292300Y62300
X284300Y62300
X316300Y62300
X324300Y62300
X357300Y23300
X205300Y51300
X174206Y38300
X91300Y115300
X143300Y222300
X143300Y229300
X143300Y234300
X143300Y245300
X143300Y273300
X143300Y318300
X137800Y332096
X113300Y359300
X173300Y332300
X179300Y318300
X170300Y317300
X179300Y273300
X179300Y245300
X179300Y234300
X179300Y229300
X179300Y222300
X47300Y259300
X37300Y259300
X37300Y141300
X47300Y141300
X28300Y102300
X20300Y395300
T02
X81158Y386253
X91158Y386253
X101158Y386253
X111158Y386253
X121158Y386253
X131158Y386253
X141158Y386253
X151158Y386253
X161158Y386253
X171158Y386253
X181158Y386253
X191158Y386253
X201158Y386253
X211158Y386253
X221158Y386253
X231158Y386253
X241158Y386253
X251158Y386253
X261158Y386253
X271158Y386253
X275300Y353757
X265300Y353757
X265300Y343757
X275300Y343757
X285300Y343757
X285300Y353757
X295300Y353757
X305300Y353757
X305300Y343757
X295300Y343757
X315300Y343757
X315300Y353757
X325300Y353757
X325300Y343757
X255300Y353757
X255300Y343757
X245300Y343757
X245300Y353757
X235300Y353757
X235300Y343757
X225300Y343757
X225300Y353757
X215300Y353757
X215300Y343757
X205300Y343757
X205300Y353757
X195300Y353757
X185300Y353757
X185300Y343757
X195300Y343757
X175300Y343757
X175300Y353757
X165300Y353757
X155300Y353757
X155300Y343757
X165300Y343757
X145300Y343757
X145300Y353757
X135300Y353757
X135300Y343757
X71237Y144914
X81237Y144914
X91237Y144914
X193552Y118166
X193552Y108166
X193552Y98166
X193552Y88166
X193552Y78166
X193552Y68166
X193552Y58166
X193552Y48166
X193552Y38166
X241316Y144914
X251316Y144914
X261316Y144914
T03
X49300Y86300
X49300Y96300
X49300Y106300
X49300Y116300
T04
X342500Y55867
T05
X332500Y65867
X352500Y65867
X352500Y45867
X332500Y45867
T06
X316552Y118166
X316552Y38166
T07
X116127Y155843
X116127Y258206
X116127Y348757
X344473Y155843
X344473Y258206
X344473Y348757
T08
X29820Y157316
X29820Y373851
X246269Y85646
X321158Y157316
X321158Y373851
T09
X37308Y45843
X342500Y102749
M30
