G75*
%MOIN*%
%OFA0B0*%
%FSLAX25Y25*%
%IPPOS*%
%LPD*%
%AMOC8*
5,1,8,0,0,1.08239X$1,22.5*
%
%ADD10C,0.00000*%
%ADD11C,0.00875*%
%ADD12R,0.04600X0.06300*%
%ADD13R,0.20000X0.20000*%
%ADD14R,0.15600X0.15600*%
%ADD15C,0.00059*%
%ADD16R,0.07874X0.03937*%
%ADD17R,0.07800X0.02100*%
D10*
X0017623Y0020253D02*
X0017623Y0398206D01*
X0360143Y0398206D01*
X0360143Y0020253D01*
X0017623Y0020253D01*
X0024808Y0045843D02*
X0024812Y0046150D01*
X0024823Y0046456D01*
X0024842Y0046763D01*
X0024868Y0047068D01*
X0024902Y0047373D01*
X0024943Y0047677D01*
X0024992Y0047980D01*
X0025048Y0048282D01*
X0025112Y0048582D01*
X0025183Y0048880D01*
X0025261Y0049177D01*
X0025346Y0049472D01*
X0025439Y0049764D01*
X0025539Y0050054D01*
X0025646Y0050342D01*
X0025760Y0050627D01*
X0025880Y0050909D01*
X0026008Y0051187D01*
X0026143Y0051463D01*
X0026284Y0051735D01*
X0026432Y0052004D01*
X0026586Y0052269D01*
X0026747Y0052530D01*
X0026915Y0052788D01*
X0027088Y0053041D01*
X0027268Y0053289D01*
X0027454Y0053533D01*
X0027645Y0053773D01*
X0027843Y0054008D01*
X0028046Y0054237D01*
X0028255Y0054462D01*
X0028469Y0054682D01*
X0028689Y0054896D01*
X0028914Y0055105D01*
X0029143Y0055308D01*
X0029378Y0055506D01*
X0029618Y0055697D01*
X0029862Y0055883D01*
X0030110Y0056063D01*
X0030363Y0056236D01*
X0030621Y0056404D01*
X0030882Y0056565D01*
X0031147Y0056719D01*
X0031416Y0056867D01*
X0031688Y0057008D01*
X0031964Y0057143D01*
X0032242Y0057271D01*
X0032524Y0057391D01*
X0032809Y0057505D01*
X0033097Y0057612D01*
X0033387Y0057712D01*
X0033679Y0057805D01*
X0033974Y0057890D01*
X0034271Y0057968D01*
X0034569Y0058039D01*
X0034869Y0058103D01*
X0035171Y0058159D01*
X0035474Y0058208D01*
X0035778Y0058249D01*
X0036083Y0058283D01*
X0036388Y0058309D01*
X0036695Y0058328D01*
X0037001Y0058339D01*
X0037308Y0058343D01*
X0037615Y0058339D01*
X0037921Y0058328D01*
X0038228Y0058309D01*
X0038533Y0058283D01*
X0038838Y0058249D01*
X0039142Y0058208D01*
X0039445Y0058159D01*
X0039747Y0058103D01*
X0040047Y0058039D01*
X0040345Y0057968D01*
X0040642Y0057890D01*
X0040937Y0057805D01*
X0041229Y0057712D01*
X0041519Y0057612D01*
X0041807Y0057505D01*
X0042092Y0057391D01*
X0042374Y0057271D01*
X0042652Y0057143D01*
X0042928Y0057008D01*
X0043200Y0056867D01*
X0043469Y0056719D01*
X0043734Y0056565D01*
X0043995Y0056404D01*
X0044253Y0056236D01*
X0044506Y0056063D01*
X0044754Y0055883D01*
X0044998Y0055697D01*
X0045238Y0055506D01*
X0045473Y0055308D01*
X0045702Y0055105D01*
X0045927Y0054896D01*
X0046147Y0054682D01*
X0046361Y0054462D01*
X0046570Y0054237D01*
X0046773Y0054008D01*
X0046971Y0053773D01*
X0047162Y0053533D01*
X0047348Y0053289D01*
X0047528Y0053041D01*
X0047701Y0052788D01*
X0047869Y0052530D01*
X0048030Y0052269D01*
X0048184Y0052004D01*
X0048332Y0051735D01*
X0048473Y0051463D01*
X0048608Y0051187D01*
X0048736Y0050909D01*
X0048856Y0050627D01*
X0048970Y0050342D01*
X0049077Y0050054D01*
X0049177Y0049764D01*
X0049270Y0049472D01*
X0049355Y0049177D01*
X0049433Y0048880D01*
X0049504Y0048582D01*
X0049568Y0048282D01*
X0049624Y0047980D01*
X0049673Y0047677D01*
X0049714Y0047373D01*
X0049748Y0047068D01*
X0049774Y0046763D01*
X0049793Y0046456D01*
X0049804Y0046150D01*
X0049808Y0045843D01*
X0049804Y0045536D01*
X0049793Y0045230D01*
X0049774Y0044923D01*
X0049748Y0044618D01*
X0049714Y0044313D01*
X0049673Y0044009D01*
X0049624Y0043706D01*
X0049568Y0043404D01*
X0049504Y0043104D01*
X0049433Y0042806D01*
X0049355Y0042509D01*
X0049270Y0042214D01*
X0049177Y0041922D01*
X0049077Y0041632D01*
X0048970Y0041344D01*
X0048856Y0041059D01*
X0048736Y0040777D01*
X0048608Y0040499D01*
X0048473Y0040223D01*
X0048332Y0039951D01*
X0048184Y0039682D01*
X0048030Y0039417D01*
X0047869Y0039156D01*
X0047701Y0038898D01*
X0047528Y0038645D01*
X0047348Y0038397D01*
X0047162Y0038153D01*
X0046971Y0037913D01*
X0046773Y0037678D01*
X0046570Y0037449D01*
X0046361Y0037224D01*
X0046147Y0037004D01*
X0045927Y0036790D01*
X0045702Y0036581D01*
X0045473Y0036378D01*
X0045238Y0036180D01*
X0044998Y0035989D01*
X0044754Y0035803D01*
X0044506Y0035623D01*
X0044253Y0035450D01*
X0043995Y0035282D01*
X0043734Y0035121D01*
X0043469Y0034967D01*
X0043200Y0034819D01*
X0042928Y0034678D01*
X0042652Y0034543D01*
X0042374Y0034415D01*
X0042092Y0034295D01*
X0041807Y0034181D01*
X0041519Y0034074D01*
X0041229Y0033974D01*
X0040937Y0033881D01*
X0040642Y0033796D01*
X0040345Y0033718D01*
X0040047Y0033647D01*
X0039747Y0033583D01*
X0039445Y0033527D01*
X0039142Y0033478D01*
X0038838Y0033437D01*
X0038533Y0033403D01*
X0038228Y0033377D01*
X0037921Y0033358D01*
X0037615Y0033347D01*
X0037308Y0033343D01*
X0037001Y0033347D01*
X0036695Y0033358D01*
X0036388Y0033377D01*
X0036083Y0033403D01*
X0035778Y0033437D01*
X0035474Y0033478D01*
X0035171Y0033527D01*
X0034869Y0033583D01*
X0034569Y0033647D01*
X0034271Y0033718D01*
X0033974Y0033796D01*
X0033679Y0033881D01*
X0033387Y0033974D01*
X0033097Y0034074D01*
X0032809Y0034181D01*
X0032524Y0034295D01*
X0032242Y0034415D01*
X0031964Y0034543D01*
X0031688Y0034678D01*
X0031416Y0034819D01*
X0031147Y0034967D01*
X0030882Y0035121D01*
X0030621Y0035282D01*
X0030363Y0035450D01*
X0030110Y0035623D01*
X0029862Y0035803D01*
X0029618Y0035989D01*
X0029378Y0036180D01*
X0029143Y0036378D01*
X0028914Y0036581D01*
X0028689Y0036790D01*
X0028469Y0037004D01*
X0028255Y0037224D01*
X0028046Y0037449D01*
X0027843Y0037678D01*
X0027645Y0037913D01*
X0027454Y0038153D01*
X0027268Y0038397D01*
X0027088Y0038645D01*
X0026915Y0038898D01*
X0026747Y0039156D01*
X0026586Y0039417D01*
X0026432Y0039682D01*
X0026284Y0039951D01*
X0026143Y0040223D01*
X0026008Y0040499D01*
X0025880Y0040777D01*
X0025760Y0041059D01*
X0025646Y0041344D01*
X0025539Y0041632D01*
X0025439Y0041922D01*
X0025346Y0042214D01*
X0025261Y0042509D01*
X0025183Y0042806D01*
X0025112Y0043104D01*
X0025048Y0043404D01*
X0024992Y0043706D01*
X0024943Y0044009D01*
X0024902Y0044313D01*
X0024868Y0044618D01*
X0024842Y0044923D01*
X0024823Y0045230D01*
X0024812Y0045536D01*
X0024808Y0045843D01*
X0111206Y0155843D02*
X0111208Y0155983D01*
X0111214Y0156123D01*
X0111224Y0156262D01*
X0111238Y0156401D01*
X0111256Y0156540D01*
X0111277Y0156678D01*
X0111303Y0156816D01*
X0111333Y0156953D01*
X0111366Y0157088D01*
X0111404Y0157223D01*
X0111445Y0157357D01*
X0111490Y0157490D01*
X0111538Y0157621D01*
X0111591Y0157750D01*
X0111647Y0157879D01*
X0111706Y0158005D01*
X0111770Y0158130D01*
X0111836Y0158253D01*
X0111907Y0158374D01*
X0111980Y0158493D01*
X0112057Y0158610D01*
X0112138Y0158724D01*
X0112221Y0158836D01*
X0112308Y0158946D01*
X0112398Y0159054D01*
X0112490Y0159158D01*
X0112586Y0159260D01*
X0112685Y0159360D01*
X0112786Y0159456D01*
X0112890Y0159550D01*
X0112997Y0159640D01*
X0113106Y0159727D01*
X0113218Y0159812D01*
X0113332Y0159893D01*
X0113448Y0159971D01*
X0113566Y0160045D01*
X0113687Y0160116D01*
X0113809Y0160184D01*
X0113934Y0160248D01*
X0114060Y0160309D01*
X0114187Y0160366D01*
X0114317Y0160419D01*
X0114448Y0160469D01*
X0114580Y0160514D01*
X0114713Y0160557D01*
X0114848Y0160595D01*
X0114983Y0160629D01*
X0115120Y0160660D01*
X0115257Y0160687D01*
X0115395Y0160709D01*
X0115534Y0160728D01*
X0115673Y0160743D01*
X0115812Y0160754D01*
X0115952Y0160761D01*
X0116092Y0160764D01*
X0116232Y0160763D01*
X0116372Y0160758D01*
X0116511Y0160749D01*
X0116651Y0160736D01*
X0116790Y0160719D01*
X0116928Y0160698D01*
X0117066Y0160674D01*
X0117203Y0160645D01*
X0117339Y0160613D01*
X0117474Y0160576D01*
X0117608Y0160536D01*
X0117741Y0160492D01*
X0117872Y0160444D01*
X0118002Y0160393D01*
X0118131Y0160338D01*
X0118258Y0160279D01*
X0118383Y0160216D01*
X0118506Y0160151D01*
X0118628Y0160081D01*
X0118747Y0160008D01*
X0118865Y0159932D01*
X0118980Y0159853D01*
X0119093Y0159770D01*
X0119203Y0159684D01*
X0119311Y0159595D01*
X0119416Y0159503D01*
X0119519Y0159408D01*
X0119619Y0159310D01*
X0119716Y0159210D01*
X0119810Y0159106D01*
X0119902Y0159000D01*
X0119990Y0158892D01*
X0120075Y0158781D01*
X0120157Y0158667D01*
X0120236Y0158551D01*
X0120311Y0158434D01*
X0120383Y0158314D01*
X0120451Y0158192D01*
X0120516Y0158068D01*
X0120578Y0157942D01*
X0120636Y0157815D01*
X0120690Y0157686D01*
X0120741Y0157555D01*
X0120787Y0157423D01*
X0120830Y0157290D01*
X0120870Y0157156D01*
X0120905Y0157021D01*
X0120937Y0156884D01*
X0120964Y0156747D01*
X0120988Y0156609D01*
X0121008Y0156471D01*
X0121024Y0156332D01*
X0121036Y0156192D01*
X0121044Y0156053D01*
X0121048Y0155913D01*
X0121048Y0155773D01*
X0121044Y0155633D01*
X0121036Y0155494D01*
X0121024Y0155354D01*
X0121008Y0155215D01*
X0120988Y0155077D01*
X0120964Y0154939D01*
X0120937Y0154802D01*
X0120905Y0154665D01*
X0120870Y0154530D01*
X0120830Y0154396D01*
X0120787Y0154263D01*
X0120741Y0154131D01*
X0120690Y0154000D01*
X0120636Y0153871D01*
X0120578Y0153744D01*
X0120516Y0153618D01*
X0120451Y0153494D01*
X0120383Y0153372D01*
X0120311Y0153252D01*
X0120236Y0153135D01*
X0120157Y0153019D01*
X0120075Y0152905D01*
X0119990Y0152794D01*
X0119902Y0152686D01*
X0119810Y0152580D01*
X0119716Y0152476D01*
X0119619Y0152376D01*
X0119519Y0152278D01*
X0119416Y0152183D01*
X0119311Y0152091D01*
X0119203Y0152002D01*
X0119093Y0151916D01*
X0118980Y0151833D01*
X0118865Y0151754D01*
X0118747Y0151678D01*
X0118628Y0151605D01*
X0118506Y0151535D01*
X0118383Y0151470D01*
X0118258Y0151407D01*
X0118131Y0151348D01*
X0118002Y0151293D01*
X0117872Y0151242D01*
X0117741Y0151194D01*
X0117608Y0151150D01*
X0117474Y0151110D01*
X0117339Y0151073D01*
X0117203Y0151041D01*
X0117066Y0151012D01*
X0116928Y0150988D01*
X0116790Y0150967D01*
X0116651Y0150950D01*
X0116511Y0150937D01*
X0116372Y0150928D01*
X0116232Y0150923D01*
X0116092Y0150922D01*
X0115952Y0150925D01*
X0115812Y0150932D01*
X0115673Y0150943D01*
X0115534Y0150958D01*
X0115395Y0150977D01*
X0115257Y0150999D01*
X0115120Y0151026D01*
X0114983Y0151057D01*
X0114848Y0151091D01*
X0114713Y0151129D01*
X0114580Y0151172D01*
X0114448Y0151217D01*
X0114317Y0151267D01*
X0114187Y0151320D01*
X0114060Y0151377D01*
X0113934Y0151438D01*
X0113809Y0151502D01*
X0113687Y0151570D01*
X0113566Y0151641D01*
X0113448Y0151715D01*
X0113332Y0151793D01*
X0113218Y0151874D01*
X0113106Y0151959D01*
X0112997Y0152046D01*
X0112890Y0152136D01*
X0112786Y0152230D01*
X0112685Y0152326D01*
X0112586Y0152426D01*
X0112490Y0152528D01*
X0112398Y0152632D01*
X0112308Y0152740D01*
X0112221Y0152850D01*
X0112138Y0152962D01*
X0112057Y0153076D01*
X0111980Y0153193D01*
X0111907Y0153312D01*
X0111836Y0153433D01*
X0111770Y0153556D01*
X0111706Y0153681D01*
X0111647Y0153807D01*
X0111591Y0153936D01*
X0111538Y0154065D01*
X0111490Y0154196D01*
X0111445Y0154329D01*
X0111404Y0154463D01*
X0111366Y0154598D01*
X0111333Y0154733D01*
X0111303Y0154870D01*
X0111277Y0155008D01*
X0111256Y0155146D01*
X0111238Y0155285D01*
X0111224Y0155424D01*
X0111214Y0155563D01*
X0111208Y0155703D01*
X0111206Y0155843D01*
X0023914Y0157316D02*
X0023916Y0157469D01*
X0023922Y0157623D01*
X0023932Y0157776D01*
X0023946Y0157928D01*
X0023964Y0158081D01*
X0023986Y0158232D01*
X0024011Y0158383D01*
X0024041Y0158534D01*
X0024075Y0158684D01*
X0024112Y0158832D01*
X0024153Y0158980D01*
X0024198Y0159126D01*
X0024247Y0159272D01*
X0024300Y0159416D01*
X0024356Y0159558D01*
X0024416Y0159699D01*
X0024480Y0159839D01*
X0024547Y0159977D01*
X0024618Y0160113D01*
X0024693Y0160247D01*
X0024770Y0160379D01*
X0024852Y0160509D01*
X0024936Y0160637D01*
X0025024Y0160763D01*
X0025115Y0160886D01*
X0025209Y0161007D01*
X0025307Y0161125D01*
X0025407Y0161241D01*
X0025511Y0161354D01*
X0025617Y0161465D01*
X0025726Y0161573D01*
X0025838Y0161678D01*
X0025952Y0161779D01*
X0026070Y0161878D01*
X0026189Y0161974D01*
X0026311Y0162067D01*
X0026436Y0162156D01*
X0026563Y0162243D01*
X0026692Y0162325D01*
X0026823Y0162405D01*
X0026956Y0162481D01*
X0027091Y0162554D01*
X0027228Y0162623D01*
X0027367Y0162688D01*
X0027507Y0162750D01*
X0027649Y0162808D01*
X0027792Y0162863D01*
X0027937Y0162914D01*
X0028083Y0162961D01*
X0028230Y0163004D01*
X0028378Y0163043D01*
X0028527Y0163079D01*
X0028677Y0163110D01*
X0028828Y0163138D01*
X0028979Y0163162D01*
X0029132Y0163182D01*
X0029284Y0163198D01*
X0029437Y0163210D01*
X0029590Y0163218D01*
X0029743Y0163222D01*
X0029897Y0163222D01*
X0030050Y0163218D01*
X0030203Y0163210D01*
X0030356Y0163198D01*
X0030508Y0163182D01*
X0030661Y0163162D01*
X0030812Y0163138D01*
X0030963Y0163110D01*
X0031113Y0163079D01*
X0031262Y0163043D01*
X0031410Y0163004D01*
X0031557Y0162961D01*
X0031703Y0162914D01*
X0031848Y0162863D01*
X0031991Y0162808D01*
X0032133Y0162750D01*
X0032273Y0162688D01*
X0032412Y0162623D01*
X0032549Y0162554D01*
X0032684Y0162481D01*
X0032817Y0162405D01*
X0032948Y0162325D01*
X0033077Y0162243D01*
X0033204Y0162156D01*
X0033329Y0162067D01*
X0033451Y0161974D01*
X0033570Y0161878D01*
X0033688Y0161779D01*
X0033802Y0161678D01*
X0033914Y0161573D01*
X0034023Y0161465D01*
X0034129Y0161354D01*
X0034233Y0161241D01*
X0034333Y0161125D01*
X0034431Y0161007D01*
X0034525Y0160886D01*
X0034616Y0160763D01*
X0034704Y0160637D01*
X0034788Y0160509D01*
X0034870Y0160379D01*
X0034947Y0160247D01*
X0035022Y0160113D01*
X0035093Y0159977D01*
X0035160Y0159839D01*
X0035224Y0159699D01*
X0035284Y0159558D01*
X0035340Y0159416D01*
X0035393Y0159272D01*
X0035442Y0159126D01*
X0035487Y0158980D01*
X0035528Y0158832D01*
X0035565Y0158684D01*
X0035599Y0158534D01*
X0035629Y0158383D01*
X0035654Y0158232D01*
X0035676Y0158081D01*
X0035694Y0157928D01*
X0035708Y0157776D01*
X0035718Y0157623D01*
X0035724Y0157469D01*
X0035726Y0157316D01*
X0035724Y0157163D01*
X0035718Y0157009D01*
X0035708Y0156856D01*
X0035694Y0156704D01*
X0035676Y0156551D01*
X0035654Y0156400D01*
X0035629Y0156249D01*
X0035599Y0156098D01*
X0035565Y0155948D01*
X0035528Y0155800D01*
X0035487Y0155652D01*
X0035442Y0155506D01*
X0035393Y0155360D01*
X0035340Y0155216D01*
X0035284Y0155074D01*
X0035224Y0154933D01*
X0035160Y0154793D01*
X0035093Y0154655D01*
X0035022Y0154519D01*
X0034947Y0154385D01*
X0034870Y0154253D01*
X0034788Y0154123D01*
X0034704Y0153995D01*
X0034616Y0153869D01*
X0034525Y0153746D01*
X0034431Y0153625D01*
X0034333Y0153507D01*
X0034233Y0153391D01*
X0034129Y0153278D01*
X0034023Y0153167D01*
X0033914Y0153059D01*
X0033802Y0152954D01*
X0033688Y0152853D01*
X0033570Y0152754D01*
X0033451Y0152658D01*
X0033329Y0152565D01*
X0033204Y0152476D01*
X0033077Y0152389D01*
X0032948Y0152307D01*
X0032817Y0152227D01*
X0032684Y0152151D01*
X0032549Y0152078D01*
X0032412Y0152009D01*
X0032273Y0151944D01*
X0032133Y0151882D01*
X0031991Y0151824D01*
X0031848Y0151769D01*
X0031703Y0151718D01*
X0031557Y0151671D01*
X0031410Y0151628D01*
X0031262Y0151589D01*
X0031113Y0151553D01*
X0030963Y0151522D01*
X0030812Y0151494D01*
X0030661Y0151470D01*
X0030508Y0151450D01*
X0030356Y0151434D01*
X0030203Y0151422D01*
X0030050Y0151414D01*
X0029897Y0151410D01*
X0029743Y0151410D01*
X0029590Y0151414D01*
X0029437Y0151422D01*
X0029284Y0151434D01*
X0029132Y0151450D01*
X0028979Y0151470D01*
X0028828Y0151494D01*
X0028677Y0151522D01*
X0028527Y0151553D01*
X0028378Y0151589D01*
X0028230Y0151628D01*
X0028083Y0151671D01*
X0027937Y0151718D01*
X0027792Y0151769D01*
X0027649Y0151824D01*
X0027507Y0151882D01*
X0027367Y0151944D01*
X0027228Y0152009D01*
X0027091Y0152078D01*
X0026956Y0152151D01*
X0026823Y0152227D01*
X0026692Y0152307D01*
X0026563Y0152389D01*
X0026436Y0152476D01*
X0026311Y0152565D01*
X0026189Y0152658D01*
X0026070Y0152754D01*
X0025952Y0152853D01*
X0025838Y0152954D01*
X0025726Y0153059D01*
X0025617Y0153167D01*
X0025511Y0153278D01*
X0025407Y0153391D01*
X0025307Y0153507D01*
X0025209Y0153625D01*
X0025115Y0153746D01*
X0025024Y0153869D01*
X0024936Y0153995D01*
X0024852Y0154123D01*
X0024770Y0154253D01*
X0024693Y0154385D01*
X0024618Y0154519D01*
X0024547Y0154655D01*
X0024480Y0154793D01*
X0024416Y0154933D01*
X0024356Y0155074D01*
X0024300Y0155216D01*
X0024247Y0155360D01*
X0024198Y0155506D01*
X0024153Y0155652D01*
X0024112Y0155800D01*
X0024075Y0155948D01*
X0024041Y0156098D01*
X0024011Y0156249D01*
X0023986Y0156400D01*
X0023964Y0156551D01*
X0023946Y0156704D01*
X0023932Y0156856D01*
X0023922Y0157009D01*
X0023916Y0157163D01*
X0023914Y0157316D01*
X0111206Y0258206D02*
X0111208Y0258346D01*
X0111214Y0258486D01*
X0111224Y0258625D01*
X0111238Y0258764D01*
X0111256Y0258903D01*
X0111277Y0259041D01*
X0111303Y0259179D01*
X0111333Y0259316D01*
X0111366Y0259451D01*
X0111404Y0259586D01*
X0111445Y0259720D01*
X0111490Y0259853D01*
X0111538Y0259984D01*
X0111591Y0260113D01*
X0111647Y0260242D01*
X0111706Y0260368D01*
X0111770Y0260493D01*
X0111836Y0260616D01*
X0111907Y0260737D01*
X0111980Y0260856D01*
X0112057Y0260973D01*
X0112138Y0261087D01*
X0112221Y0261199D01*
X0112308Y0261309D01*
X0112398Y0261417D01*
X0112490Y0261521D01*
X0112586Y0261623D01*
X0112685Y0261723D01*
X0112786Y0261819D01*
X0112890Y0261913D01*
X0112997Y0262003D01*
X0113106Y0262090D01*
X0113218Y0262175D01*
X0113332Y0262256D01*
X0113448Y0262334D01*
X0113566Y0262408D01*
X0113687Y0262479D01*
X0113809Y0262547D01*
X0113934Y0262611D01*
X0114060Y0262672D01*
X0114187Y0262729D01*
X0114317Y0262782D01*
X0114448Y0262832D01*
X0114580Y0262877D01*
X0114713Y0262920D01*
X0114848Y0262958D01*
X0114983Y0262992D01*
X0115120Y0263023D01*
X0115257Y0263050D01*
X0115395Y0263072D01*
X0115534Y0263091D01*
X0115673Y0263106D01*
X0115812Y0263117D01*
X0115952Y0263124D01*
X0116092Y0263127D01*
X0116232Y0263126D01*
X0116372Y0263121D01*
X0116511Y0263112D01*
X0116651Y0263099D01*
X0116790Y0263082D01*
X0116928Y0263061D01*
X0117066Y0263037D01*
X0117203Y0263008D01*
X0117339Y0262976D01*
X0117474Y0262939D01*
X0117608Y0262899D01*
X0117741Y0262855D01*
X0117872Y0262807D01*
X0118002Y0262756D01*
X0118131Y0262701D01*
X0118258Y0262642D01*
X0118383Y0262579D01*
X0118506Y0262514D01*
X0118628Y0262444D01*
X0118747Y0262371D01*
X0118865Y0262295D01*
X0118980Y0262216D01*
X0119093Y0262133D01*
X0119203Y0262047D01*
X0119311Y0261958D01*
X0119416Y0261866D01*
X0119519Y0261771D01*
X0119619Y0261673D01*
X0119716Y0261573D01*
X0119810Y0261469D01*
X0119902Y0261363D01*
X0119990Y0261255D01*
X0120075Y0261144D01*
X0120157Y0261030D01*
X0120236Y0260914D01*
X0120311Y0260797D01*
X0120383Y0260677D01*
X0120451Y0260555D01*
X0120516Y0260431D01*
X0120578Y0260305D01*
X0120636Y0260178D01*
X0120690Y0260049D01*
X0120741Y0259918D01*
X0120787Y0259786D01*
X0120830Y0259653D01*
X0120870Y0259519D01*
X0120905Y0259384D01*
X0120937Y0259247D01*
X0120964Y0259110D01*
X0120988Y0258972D01*
X0121008Y0258834D01*
X0121024Y0258695D01*
X0121036Y0258555D01*
X0121044Y0258416D01*
X0121048Y0258276D01*
X0121048Y0258136D01*
X0121044Y0257996D01*
X0121036Y0257857D01*
X0121024Y0257717D01*
X0121008Y0257578D01*
X0120988Y0257440D01*
X0120964Y0257302D01*
X0120937Y0257165D01*
X0120905Y0257028D01*
X0120870Y0256893D01*
X0120830Y0256759D01*
X0120787Y0256626D01*
X0120741Y0256494D01*
X0120690Y0256363D01*
X0120636Y0256234D01*
X0120578Y0256107D01*
X0120516Y0255981D01*
X0120451Y0255857D01*
X0120383Y0255735D01*
X0120311Y0255615D01*
X0120236Y0255498D01*
X0120157Y0255382D01*
X0120075Y0255268D01*
X0119990Y0255157D01*
X0119902Y0255049D01*
X0119810Y0254943D01*
X0119716Y0254839D01*
X0119619Y0254739D01*
X0119519Y0254641D01*
X0119416Y0254546D01*
X0119311Y0254454D01*
X0119203Y0254365D01*
X0119093Y0254279D01*
X0118980Y0254196D01*
X0118865Y0254117D01*
X0118747Y0254041D01*
X0118628Y0253968D01*
X0118506Y0253898D01*
X0118383Y0253833D01*
X0118258Y0253770D01*
X0118131Y0253711D01*
X0118002Y0253656D01*
X0117872Y0253605D01*
X0117741Y0253557D01*
X0117608Y0253513D01*
X0117474Y0253473D01*
X0117339Y0253436D01*
X0117203Y0253404D01*
X0117066Y0253375D01*
X0116928Y0253351D01*
X0116790Y0253330D01*
X0116651Y0253313D01*
X0116511Y0253300D01*
X0116372Y0253291D01*
X0116232Y0253286D01*
X0116092Y0253285D01*
X0115952Y0253288D01*
X0115812Y0253295D01*
X0115673Y0253306D01*
X0115534Y0253321D01*
X0115395Y0253340D01*
X0115257Y0253362D01*
X0115120Y0253389D01*
X0114983Y0253420D01*
X0114848Y0253454D01*
X0114713Y0253492D01*
X0114580Y0253535D01*
X0114448Y0253580D01*
X0114317Y0253630D01*
X0114187Y0253683D01*
X0114060Y0253740D01*
X0113934Y0253801D01*
X0113809Y0253865D01*
X0113687Y0253933D01*
X0113566Y0254004D01*
X0113448Y0254078D01*
X0113332Y0254156D01*
X0113218Y0254237D01*
X0113106Y0254322D01*
X0112997Y0254409D01*
X0112890Y0254499D01*
X0112786Y0254593D01*
X0112685Y0254689D01*
X0112586Y0254789D01*
X0112490Y0254891D01*
X0112398Y0254995D01*
X0112308Y0255103D01*
X0112221Y0255213D01*
X0112138Y0255325D01*
X0112057Y0255439D01*
X0111980Y0255556D01*
X0111907Y0255675D01*
X0111836Y0255796D01*
X0111770Y0255919D01*
X0111706Y0256044D01*
X0111647Y0256170D01*
X0111591Y0256299D01*
X0111538Y0256428D01*
X0111490Y0256559D01*
X0111445Y0256692D01*
X0111404Y0256826D01*
X0111366Y0256961D01*
X0111333Y0257096D01*
X0111303Y0257233D01*
X0111277Y0257371D01*
X0111256Y0257509D01*
X0111238Y0257648D01*
X0111224Y0257787D01*
X0111214Y0257926D01*
X0111208Y0258066D01*
X0111206Y0258206D01*
X0111206Y0348757D02*
X0111208Y0348897D01*
X0111214Y0349037D01*
X0111224Y0349176D01*
X0111238Y0349315D01*
X0111256Y0349454D01*
X0111277Y0349592D01*
X0111303Y0349730D01*
X0111333Y0349867D01*
X0111366Y0350002D01*
X0111404Y0350137D01*
X0111445Y0350271D01*
X0111490Y0350404D01*
X0111538Y0350535D01*
X0111591Y0350664D01*
X0111647Y0350793D01*
X0111706Y0350919D01*
X0111770Y0351044D01*
X0111836Y0351167D01*
X0111907Y0351288D01*
X0111980Y0351407D01*
X0112057Y0351524D01*
X0112138Y0351638D01*
X0112221Y0351750D01*
X0112308Y0351860D01*
X0112398Y0351968D01*
X0112490Y0352072D01*
X0112586Y0352174D01*
X0112685Y0352274D01*
X0112786Y0352370D01*
X0112890Y0352464D01*
X0112997Y0352554D01*
X0113106Y0352641D01*
X0113218Y0352726D01*
X0113332Y0352807D01*
X0113448Y0352885D01*
X0113566Y0352959D01*
X0113687Y0353030D01*
X0113809Y0353098D01*
X0113934Y0353162D01*
X0114060Y0353223D01*
X0114187Y0353280D01*
X0114317Y0353333D01*
X0114448Y0353383D01*
X0114580Y0353428D01*
X0114713Y0353471D01*
X0114848Y0353509D01*
X0114983Y0353543D01*
X0115120Y0353574D01*
X0115257Y0353601D01*
X0115395Y0353623D01*
X0115534Y0353642D01*
X0115673Y0353657D01*
X0115812Y0353668D01*
X0115952Y0353675D01*
X0116092Y0353678D01*
X0116232Y0353677D01*
X0116372Y0353672D01*
X0116511Y0353663D01*
X0116651Y0353650D01*
X0116790Y0353633D01*
X0116928Y0353612D01*
X0117066Y0353588D01*
X0117203Y0353559D01*
X0117339Y0353527D01*
X0117474Y0353490D01*
X0117608Y0353450D01*
X0117741Y0353406D01*
X0117872Y0353358D01*
X0118002Y0353307D01*
X0118131Y0353252D01*
X0118258Y0353193D01*
X0118383Y0353130D01*
X0118506Y0353065D01*
X0118628Y0352995D01*
X0118747Y0352922D01*
X0118865Y0352846D01*
X0118980Y0352767D01*
X0119093Y0352684D01*
X0119203Y0352598D01*
X0119311Y0352509D01*
X0119416Y0352417D01*
X0119519Y0352322D01*
X0119619Y0352224D01*
X0119716Y0352124D01*
X0119810Y0352020D01*
X0119902Y0351914D01*
X0119990Y0351806D01*
X0120075Y0351695D01*
X0120157Y0351581D01*
X0120236Y0351465D01*
X0120311Y0351348D01*
X0120383Y0351228D01*
X0120451Y0351106D01*
X0120516Y0350982D01*
X0120578Y0350856D01*
X0120636Y0350729D01*
X0120690Y0350600D01*
X0120741Y0350469D01*
X0120787Y0350337D01*
X0120830Y0350204D01*
X0120870Y0350070D01*
X0120905Y0349935D01*
X0120937Y0349798D01*
X0120964Y0349661D01*
X0120988Y0349523D01*
X0121008Y0349385D01*
X0121024Y0349246D01*
X0121036Y0349106D01*
X0121044Y0348967D01*
X0121048Y0348827D01*
X0121048Y0348687D01*
X0121044Y0348547D01*
X0121036Y0348408D01*
X0121024Y0348268D01*
X0121008Y0348129D01*
X0120988Y0347991D01*
X0120964Y0347853D01*
X0120937Y0347716D01*
X0120905Y0347579D01*
X0120870Y0347444D01*
X0120830Y0347310D01*
X0120787Y0347177D01*
X0120741Y0347045D01*
X0120690Y0346914D01*
X0120636Y0346785D01*
X0120578Y0346658D01*
X0120516Y0346532D01*
X0120451Y0346408D01*
X0120383Y0346286D01*
X0120311Y0346166D01*
X0120236Y0346049D01*
X0120157Y0345933D01*
X0120075Y0345819D01*
X0119990Y0345708D01*
X0119902Y0345600D01*
X0119810Y0345494D01*
X0119716Y0345390D01*
X0119619Y0345290D01*
X0119519Y0345192D01*
X0119416Y0345097D01*
X0119311Y0345005D01*
X0119203Y0344916D01*
X0119093Y0344830D01*
X0118980Y0344747D01*
X0118865Y0344668D01*
X0118747Y0344592D01*
X0118628Y0344519D01*
X0118506Y0344449D01*
X0118383Y0344384D01*
X0118258Y0344321D01*
X0118131Y0344262D01*
X0118002Y0344207D01*
X0117872Y0344156D01*
X0117741Y0344108D01*
X0117608Y0344064D01*
X0117474Y0344024D01*
X0117339Y0343987D01*
X0117203Y0343955D01*
X0117066Y0343926D01*
X0116928Y0343902D01*
X0116790Y0343881D01*
X0116651Y0343864D01*
X0116511Y0343851D01*
X0116372Y0343842D01*
X0116232Y0343837D01*
X0116092Y0343836D01*
X0115952Y0343839D01*
X0115812Y0343846D01*
X0115673Y0343857D01*
X0115534Y0343872D01*
X0115395Y0343891D01*
X0115257Y0343913D01*
X0115120Y0343940D01*
X0114983Y0343971D01*
X0114848Y0344005D01*
X0114713Y0344043D01*
X0114580Y0344086D01*
X0114448Y0344131D01*
X0114317Y0344181D01*
X0114187Y0344234D01*
X0114060Y0344291D01*
X0113934Y0344352D01*
X0113809Y0344416D01*
X0113687Y0344484D01*
X0113566Y0344555D01*
X0113448Y0344629D01*
X0113332Y0344707D01*
X0113218Y0344788D01*
X0113106Y0344873D01*
X0112997Y0344960D01*
X0112890Y0345050D01*
X0112786Y0345144D01*
X0112685Y0345240D01*
X0112586Y0345340D01*
X0112490Y0345442D01*
X0112398Y0345546D01*
X0112308Y0345654D01*
X0112221Y0345764D01*
X0112138Y0345876D01*
X0112057Y0345990D01*
X0111980Y0346107D01*
X0111907Y0346226D01*
X0111836Y0346347D01*
X0111770Y0346470D01*
X0111706Y0346595D01*
X0111647Y0346721D01*
X0111591Y0346850D01*
X0111538Y0346979D01*
X0111490Y0347110D01*
X0111445Y0347243D01*
X0111404Y0347377D01*
X0111366Y0347512D01*
X0111333Y0347647D01*
X0111303Y0347784D01*
X0111277Y0347922D01*
X0111256Y0348060D01*
X0111238Y0348199D01*
X0111224Y0348338D01*
X0111214Y0348477D01*
X0111208Y0348617D01*
X0111206Y0348757D01*
X0023914Y0373851D02*
X0023916Y0374004D01*
X0023922Y0374158D01*
X0023932Y0374311D01*
X0023946Y0374463D01*
X0023964Y0374616D01*
X0023986Y0374767D01*
X0024011Y0374918D01*
X0024041Y0375069D01*
X0024075Y0375219D01*
X0024112Y0375367D01*
X0024153Y0375515D01*
X0024198Y0375661D01*
X0024247Y0375807D01*
X0024300Y0375951D01*
X0024356Y0376093D01*
X0024416Y0376234D01*
X0024480Y0376374D01*
X0024547Y0376512D01*
X0024618Y0376648D01*
X0024693Y0376782D01*
X0024770Y0376914D01*
X0024852Y0377044D01*
X0024936Y0377172D01*
X0025024Y0377298D01*
X0025115Y0377421D01*
X0025209Y0377542D01*
X0025307Y0377660D01*
X0025407Y0377776D01*
X0025511Y0377889D01*
X0025617Y0378000D01*
X0025726Y0378108D01*
X0025838Y0378213D01*
X0025952Y0378314D01*
X0026070Y0378413D01*
X0026189Y0378509D01*
X0026311Y0378602D01*
X0026436Y0378691D01*
X0026563Y0378778D01*
X0026692Y0378860D01*
X0026823Y0378940D01*
X0026956Y0379016D01*
X0027091Y0379089D01*
X0027228Y0379158D01*
X0027367Y0379223D01*
X0027507Y0379285D01*
X0027649Y0379343D01*
X0027792Y0379398D01*
X0027937Y0379449D01*
X0028083Y0379496D01*
X0028230Y0379539D01*
X0028378Y0379578D01*
X0028527Y0379614D01*
X0028677Y0379645D01*
X0028828Y0379673D01*
X0028979Y0379697D01*
X0029132Y0379717D01*
X0029284Y0379733D01*
X0029437Y0379745D01*
X0029590Y0379753D01*
X0029743Y0379757D01*
X0029897Y0379757D01*
X0030050Y0379753D01*
X0030203Y0379745D01*
X0030356Y0379733D01*
X0030508Y0379717D01*
X0030661Y0379697D01*
X0030812Y0379673D01*
X0030963Y0379645D01*
X0031113Y0379614D01*
X0031262Y0379578D01*
X0031410Y0379539D01*
X0031557Y0379496D01*
X0031703Y0379449D01*
X0031848Y0379398D01*
X0031991Y0379343D01*
X0032133Y0379285D01*
X0032273Y0379223D01*
X0032412Y0379158D01*
X0032549Y0379089D01*
X0032684Y0379016D01*
X0032817Y0378940D01*
X0032948Y0378860D01*
X0033077Y0378778D01*
X0033204Y0378691D01*
X0033329Y0378602D01*
X0033451Y0378509D01*
X0033570Y0378413D01*
X0033688Y0378314D01*
X0033802Y0378213D01*
X0033914Y0378108D01*
X0034023Y0378000D01*
X0034129Y0377889D01*
X0034233Y0377776D01*
X0034333Y0377660D01*
X0034431Y0377542D01*
X0034525Y0377421D01*
X0034616Y0377298D01*
X0034704Y0377172D01*
X0034788Y0377044D01*
X0034870Y0376914D01*
X0034947Y0376782D01*
X0035022Y0376648D01*
X0035093Y0376512D01*
X0035160Y0376374D01*
X0035224Y0376234D01*
X0035284Y0376093D01*
X0035340Y0375951D01*
X0035393Y0375807D01*
X0035442Y0375661D01*
X0035487Y0375515D01*
X0035528Y0375367D01*
X0035565Y0375219D01*
X0035599Y0375069D01*
X0035629Y0374918D01*
X0035654Y0374767D01*
X0035676Y0374616D01*
X0035694Y0374463D01*
X0035708Y0374311D01*
X0035718Y0374158D01*
X0035724Y0374004D01*
X0035726Y0373851D01*
X0035724Y0373698D01*
X0035718Y0373544D01*
X0035708Y0373391D01*
X0035694Y0373239D01*
X0035676Y0373086D01*
X0035654Y0372935D01*
X0035629Y0372784D01*
X0035599Y0372633D01*
X0035565Y0372483D01*
X0035528Y0372335D01*
X0035487Y0372187D01*
X0035442Y0372041D01*
X0035393Y0371895D01*
X0035340Y0371751D01*
X0035284Y0371609D01*
X0035224Y0371468D01*
X0035160Y0371328D01*
X0035093Y0371190D01*
X0035022Y0371054D01*
X0034947Y0370920D01*
X0034870Y0370788D01*
X0034788Y0370658D01*
X0034704Y0370530D01*
X0034616Y0370404D01*
X0034525Y0370281D01*
X0034431Y0370160D01*
X0034333Y0370042D01*
X0034233Y0369926D01*
X0034129Y0369813D01*
X0034023Y0369702D01*
X0033914Y0369594D01*
X0033802Y0369489D01*
X0033688Y0369388D01*
X0033570Y0369289D01*
X0033451Y0369193D01*
X0033329Y0369100D01*
X0033204Y0369011D01*
X0033077Y0368924D01*
X0032948Y0368842D01*
X0032817Y0368762D01*
X0032684Y0368686D01*
X0032549Y0368613D01*
X0032412Y0368544D01*
X0032273Y0368479D01*
X0032133Y0368417D01*
X0031991Y0368359D01*
X0031848Y0368304D01*
X0031703Y0368253D01*
X0031557Y0368206D01*
X0031410Y0368163D01*
X0031262Y0368124D01*
X0031113Y0368088D01*
X0030963Y0368057D01*
X0030812Y0368029D01*
X0030661Y0368005D01*
X0030508Y0367985D01*
X0030356Y0367969D01*
X0030203Y0367957D01*
X0030050Y0367949D01*
X0029897Y0367945D01*
X0029743Y0367945D01*
X0029590Y0367949D01*
X0029437Y0367957D01*
X0029284Y0367969D01*
X0029132Y0367985D01*
X0028979Y0368005D01*
X0028828Y0368029D01*
X0028677Y0368057D01*
X0028527Y0368088D01*
X0028378Y0368124D01*
X0028230Y0368163D01*
X0028083Y0368206D01*
X0027937Y0368253D01*
X0027792Y0368304D01*
X0027649Y0368359D01*
X0027507Y0368417D01*
X0027367Y0368479D01*
X0027228Y0368544D01*
X0027091Y0368613D01*
X0026956Y0368686D01*
X0026823Y0368762D01*
X0026692Y0368842D01*
X0026563Y0368924D01*
X0026436Y0369011D01*
X0026311Y0369100D01*
X0026189Y0369193D01*
X0026070Y0369289D01*
X0025952Y0369388D01*
X0025838Y0369489D01*
X0025726Y0369594D01*
X0025617Y0369702D01*
X0025511Y0369813D01*
X0025407Y0369926D01*
X0025307Y0370042D01*
X0025209Y0370160D01*
X0025115Y0370281D01*
X0025024Y0370404D01*
X0024936Y0370530D01*
X0024852Y0370658D01*
X0024770Y0370788D01*
X0024693Y0370920D01*
X0024618Y0371054D01*
X0024547Y0371190D01*
X0024480Y0371328D01*
X0024416Y0371468D01*
X0024356Y0371609D01*
X0024300Y0371751D01*
X0024247Y0371895D01*
X0024198Y0372041D01*
X0024153Y0372187D01*
X0024112Y0372335D01*
X0024075Y0372483D01*
X0024041Y0372633D01*
X0024011Y0372784D01*
X0023986Y0372935D01*
X0023964Y0373086D01*
X0023946Y0373239D01*
X0023932Y0373391D01*
X0023922Y0373544D01*
X0023916Y0373698D01*
X0023914Y0373851D01*
X0240363Y0085646D02*
X0240365Y0085799D01*
X0240371Y0085953D01*
X0240381Y0086106D01*
X0240395Y0086258D01*
X0240413Y0086411D01*
X0240435Y0086562D01*
X0240460Y0086713D01*
X0240490Y0086864D01*
X0240524Y0087014D01*
X0240561Y0087162D01*
X0240602Y0087310D01*
X0240647Y0087456D01*
X0240696Y0087602D01*
X0240749Y0087746D01*
X0240805Y0087888D01*
X0240865Y0088029D01*
X0240929Y0088169D01*
X0240996Y0088307D01*
X0241067Y0088443D01*
X0241142Y0088577D01*
X0241219Y0088709D01*
X0241301Y0088839D01*
X0241385Y0088967D01*
X0241473Y0089093D01*
X0241564Y0089216D01*
X0241658Y0089337D01*
X0241756Y0089455D01*
X0241856Y0089571D01*
X0241960Y0089684D01*
X0242066Y0089795D01*
X0242175Y0089903D01*
X0242287Y0090008D01*
X0242401Y0090109D01*
X0242519Y0090208D01*
X0242638Y0090304D01*
X0242760Y0090397D01*
X0242885Y0090486D01*
X0243012Y0090573D01*
X0243141Y0090655D01*
X0243272Y0090735D01*
X0243405Y0090811D01*
X0243540Y0090884D01*
X0243677Y0090953D01*
X0243816Y0091018D01*
X0243956Y0091080D01*
X0244098Y0091138D01*
X0244241Y0091193D01*
X0244386Y0091244D01*
X0244532Y0091291D01*
X0244679Y0091334D01*
X0244827Y0091373D01*
X0244976Y0091409D01*
X0245126Y0091440D01*
X0245277Y0091468D01*
X0245428Y0091492D01*
X0245581Y0091512D01*
X0245733Y0091528D01*
X0245886Y0091540D01*
X0246039Y0091548D01*
X0246192Y0091552D01*
X0246346Y0091552D01*
X0246499Y0091548D01*
X0246652Y0091540D01*
X0246805Y0091528D01*
X0246957Y0091512D01*
X0247110Y0091492D01*
X0247261Y0091468D01*
X0247412Y0091440D01*
X0247562Y0091409D01*
X0247711Y0091373D01*
X0247859Y0091334D01*
X0248006Y0091291D01*
X0248152Y0091244D01*
X0248297Y0091193D01*
X0248440Y0091138D01*
X0248582Y0091080D01*
X0248722Y0091018D01*
X0248861Y0090953D01*
X0248998Y0090884D01*
X0249133Y0090811D01*
X0249266Y0090735D01*
X0249397Y0090655D01*
X0249526Y0090573D01*
X0249653Y0090486D01*
X0249778Y0090397D01*
X0249900Y0090304D01*
X0250019Y0090208D01*
X0250137Y0090109D01*
X0250251Y0090008D01*
X0250363Y0089903D01*
X0250472Y0089795D01*
X0250578Y0089684D01*
X0250682Y0089571D01*
X0250782Y0089455D01*
X0250880Y0089337D01*
X0250974Y0089216D01*
X0251065Y0089093D01*
X0251153Y0088967D01*
X0251237Y0088839D01*
X0251319Y0088709D01*
X0251396Y0088577D01*
X0251471Y0088443D01*
X0251542Y0088307D01*
X0251609Y0088169D01*
X0251673Y0088029D01*
X0251733Y0087888D01*
X0251789Y0087746D01*
X0251842Y0087602D01*
X0251891Y0087456D01*
X0251936Y0087310D01*
X0251977Y0087162D01*
X0252014Y0087014D01*
X0252048Y0086864D01*
X0252078Y0086713D01*
X0252103Y0086562D01*
X0252125Y0086411D01*
X0252143Y0086258D01*
X0252157Y0086106D01*
X0252167Y0085953D01*
X0252173Y0085799D01*
X0252175Y0085646D01*
X0252173Y0085493D01*
X0252167Y0085339D01*
X0252157Y0085186D01*
X0252143Y0085034D01*
X0252125Y0084881D01*
X0252103Y0084730D01*
X0252078Y0084579D01*
X0252048Y0084428D01*
X0252014Y0084278D01*
X0251977Y0084130D01*
X0251936Y0083982D01*
X0251891Y0083836D01*
X0251842Y0083690D01*
X0251789Y0083546D01*
X0251733Y0083404D01*
X0251673Y0083263D01*
X0251609Y0083123D01*
X0251542Y0082985D01*
X0251471Y0082849D01*
X0251396Y0082715D01*
X0251319Y0082583D01*
X0251237Y0082453D01*
X0251153Y0082325D01*
X0251065Y0082199D01*
X0250974Y0082076D01*
X0250880Y0081955D01*
X0250782Y0081837D01*
X0250682Y0081721D01*
X0250578Y0081608D01*
X0250472Y0081497D01*
X0250363Y0081389D01*
X0250251Y0081284D01*
X0250137Y0081183D01*
X0250019Y0081084D01*
X0249900Y0080988D01*
X0249778Y0080895D01*
X0249653Y0080806D01*
X0249526Y0080719D01*
X0249397Y0080637D01*
X0249266Y0080557D01*
X0249133Y0080481D01*
X0248998Y0080408D01*
X0248861Y0080339D01*
X0248722Y0080274D01*
X0248582Y0080212D01*
X0248440Y0080154D01*
X0248297Y0080099D01*
X0248152Y0080048D01*
X0248006Y0080001D01*
X0247859Y0079958D01*
X0247711Y0079919D01*
X0247562Y0079883D01*
X0247412Y0079852D01*
X0247261Y0079824D01*
X0247110Y0079800D01*
X0246957Y0079780D01*
X0246805Y0079764D01*
X0246652Y0079752D01*
X0246499Y0079744D01*
X0246346Y0079740D01*
X0246192Y0079740D01*
X0246039Y0079744D01*
X0245886Y0079752D01*
X0245733Y0079764D01*
X0245581Y0079780D01*
X0245428Y0079800D01*
X0245277Y0079824D01*
X0245126Y0079852D01*
X0244976Y0079883D01*
X0244827Y0079919D01*
X0244679Y0079958D01*
X0244532Y0080001D01*
X0244386Y0080048D01*
X0244241Y0080099D01*
X0244098Y0080154D01*
X0243956Y0080212D01*
X0243816Y0080274D01*
X0243677Y0080339D01*
X0243540Y0080408D01*
X0243405Y0080481D01*
X0243272Y0080557D01*
X0243141Y0080637D01*
X0243012Y0080719D01*
X0242885Y0080806D01*
X0242760Y0080895D01*
X0242638Y0080988D01*
X0242519Y0081084D01*
X0242401Y0081183D01*
X0242287Y0081284D01*
X0242175Y0081389D01*
X0242066Y0081497D01*
X0241960Y0081608D01*
X0241856Y0081721D01*
X0241756Y0081837D01*
X0241658Y0081955D01*
X0241564Y0082076D01*
X0241473Y0082199D01*
X0241385Y0082325D01*
X0241301Y0082453D01*
X0241219Y0082583D01*
X0241142Y0082715D01*
X0241067Y0082849D01*
X0240996Y0082985D01*
X0240929Y0083123D01*
X0240865Y0083263D01*
X0240805Y0083404D01*
X0240749Y0083546D01*
X0240696Y0083690D01*
X0240647Y0083836D01*
X0240602Y0083982D01*
X0240561Y0084130D01*
X0240524Y0084278D01*
X0240490Y0084428D01*
X0240460Y0084579D01*
X0240435Y0084730D01*
X0240413Y0084881D01*
X0240395Y0085034D01*
X0240381Y0085186D01*
X0240371Y0085339D01*
X0240365Y0085493D01*
X0240363Y0085646D01*
X0312052Y0118166D02*
X0312054Y0118300D01*
X0312060Y0118434D01*
X0312070Y0118567D01*
X0312084Y0118701D01*
X0312102Y0118834D01*
X0312124Y0118966D01*
X0312149Y0119097D01*
X0312179Y0119228D01*
X0312213Y0119358D01*
X0312250Y0119486D01*
X0312291Y0119614D01*
X0312336Y0119740D01*
X0312385Y0119865D01*
X0312437Y0119988D01*
X0312493Y0120110D01*
X0312553Y0120230D01*
X0312616Y0120348D01*
X0312683Y0120464D01*
X0312753Y0120578D01*
X0312827Y0120690D01*
X0312904Y0120800D01*
X0312984Y0120908D01*
X0313067Y0121013D01*
X0313153Y0121115D01*
X0313242Y0121215D01*
X0313335Y0121312D01*
X0313430Y0121407D01*
X0313528Y0121498D01*
X0313628Y0121587D01*
X0313731Y0121672D01*
X0313837Y0121755D01*
X0313945Y0121834D01*
X0314055Y0121910D01*
X0314168Y0121983D01*
X0314283Y0122052D01*
X0314399Y0122118D01*
X0314518Y0122180D01*
X0314638Y0122239D01*
X0314761Y0122294D01*
X0314884Y0122346D01*
X0315009Y0122393D01*
X0315136Y0122437D01*
X0315264Y0122478D01*
X0315393Y0122514D01*
X0315523Y0122547D01*
X0315654Y0122575D01*
X0315785Y0122600D01*
X0315918Y0122621D01*
X0316051Y0122638D01*
X0316184Y0122651D01*
X0316318Y0122660D01*
X0316452Y0122665D01*
X0316586Y0122666D01*
X0316719Y0122663D01*
X0316853Y0122656D01*
X0316987Y0122645D01*
X0317120Y0122630D01*
X0317253Y0122611D01*
X0317385Y0122588D01*
X0317516Y0122562D01*
X0317646Y0122531D01*
X0317776Y0122496D01*
X0317904Y0122458D01*
X0318031Y0122416D01*
X0318157Y0122370D01*
X0318282Y0122320D01*
X0318405Y0122267D01*
X0318526Y0122210D01*
X0318646Y0122149D01*
X0318763Y0122085D01*
X0318879Y0122018D01*
X0318993Y0121947D01*
X0319104Y0121872D01*
X0319213Y0121795D01*
X0319320Y0121714D01*
X0319425Y0121630D01*
X0319526Y0121543D01*
X0319626Y0121453D01*
X0319722Y0121360D01*
X0319816Y0121264D01*
X0319907Y0121165D01*
X0319994Y0121064D01*
X0320079Y0120960D01*
X0320161Y0120854D01*
X0320239Y0120746D01*
X0320314Y0120635D01*
X0320386Y0120522D01*
X0320455Y0120406D01*
X0320520Y0120289D01*
X0320581Y0120170D01*
X0320639Y0120049D01*
X0320693Y0119927D01*
X0320744Y0119803D01*
X0320791Y0119677D01*
X0320834Y0119550D01*
X0320873Y0119422D01*
X0320909Y0119293D01*
X0320940Y0119163D01*
X0320968Y0119032D01*
X0320992Y0118900D01*
X0321012Y0118767D01*
X0321028Y0118634D01*
X0321040Y0118501D01*
X0321048Y0118367D01*
X0321052Y0118233D01*
X0321052Y0118099D01*
X0321048Y0117965D01*
X0321040Y0117831D01*
X0321028Y0117698D01*
X0321012Y0117565D01*
X0320992Y0117432D01*
X0320968Y0117300D01*
X0320940Y0117169D01*
X0320909Y0117039D01*
X0320873Y0116910D01*
X0320834Y0116782D01*
X0320791Y0116655D01*
X0320744Y0116529D01*
X0320693Y0116405D01*
X0320639Y0116283D01*
X0320581Y0116162D01*
X0320520Y0116043D01*
X0320455Y0115926D01*
X0320386Y0115810D01*
X0320314Y0115697D01*
X0320239Y0115586D01*
X0320161Y0115478D01*
X0320079Y0115372D01*
X0319994Y0115268D01*
X0319907Y0115167D01*
X0319816Y0115068D01*
X0319722Y0114972D01*
X0319626Y0114879D01*
X0319526Y0114789D01*
X0319425Y0114702D01*
X0319320Y0114618D01*
X0319213Y0114537D01*
X0319104Y0114460D01*
X0318993Y0114385D01*
X0318879Y0114314D01*
X0318763Y0114247D01*
X0318646Y0114183D01*
X0318526Y0114122D01*
X0318405Y0114065D01*
X0318282Y0114012D01*
X0318157Y0113962D01*
X0318031Y0113916D01*
X0317904Y0113874D01*
X0317776Y0113836D01*
X0317646Y0113801D01*
X0317516Y0113770D01*
X0317385Y0113744D01*
X0317253Y0113721D01*
X0317120Y0113702D01*
X0316987Y0113687D01*
X0316853Y0113676D01*
X0316719Y0113669D01*
X0316586Y0113666D01*
X0316452Y0113667D01*
X0316318Y0113672D01*
X0316184Y0113681D01*
X0316051Y0113694D01*
X0315918Y0113711D01*
X0315785Y0113732D01*
X0315654Y0113757D01*
X0315523Y0113785D01*
X0315393Y0113818D01*
X0315264Y0113854D01*
X0315136Y0113895D01*
X0315009Y0113939D01*
X0314884Y0113986D01*
X0314761Y0114038D01*
X0314638Y0114093D01*
X0314518Y0114152D01*
X0314399Y0114214D01*
X0314283Y0114280D01*
X0314168Y0114349D01*
X0314055Y0114422D01*
X0313945Y0114498D01*
X0313837Y0114577D01*
X0313731Y0114660D01*
X0313628Y0114745D01*
X0313528Y0114834D01*
X0313430Y0114925D01*
X0313335Y0115020D01*
X0313242Y0115117D01*
X0313153Y0115217D01*
X0313067Y0115319D01*
X0312984Y0115424D01*
X0312904Y0115532D01*
X0312827Y0115642D01*
X0312753Y0115754D01*
X0312683Y0115868D01*
X0312616Y0115984D01*
X0312553Y0116102D01*
X0312493Y0116222D01*
X0312437Y0116344D01*
X0312385Y0116467D01*
X0312336Y0116592D01*
X0312291Y0116718D01*
X0312250Y0116846D01*
X0312213Y0116974D01*
X0312179Y0117104D01*
X0312149Y0117235D01*
X0312124Y0117366D01*
X0312102Y0117498D01*
X0312084Y0117631D01*
X0312070Y0117765D01*
X0312060Y0117898D01*
X0312054Y0118032D01*
X0312052Y0118166D01*
X0330000Y0102749D02*
X0330004Y0103056D01*
X0330015Y0103362D01*
X0330034Y0103669D01*
X0330060Y0103974D01*
X0330094Y0104279D01*
X0330135Y0104583D01*
X0330184Y0104886D01*
X0330240Y0105188D01*
X0330304Y0105488D01*
X0330375Y0105786D01*
X0330453Y0106083D01*
X0330538Y0106378D01*
X0330631Y0106670D01*
X0330731Y0106960D01*
X0330838Y0107248D01*
X0330952Y0107533D01*
X0331072Y0107815D01*
X0331200Y0108093D01*
X0331335Y0108369D01*
X0331476Y0108641D01*
X0331624Y0108910D01*
X0331778Y0109175D01*
X0331939Y0109436D01*
X0332107Y0109694D01*
X0332280Y0109947D01*
X0332460Y0110195D01*
X0332646Y0110439D01*
X0332837Y0110679D01*
X0333035Y0110914D01*
X0333238Y0111143D01*
X0333447Y0111368D01*
X0333661Y0111588D01*
X0333881Y0111802D01*
X0334106Y0112011D01*
X0334335Y0112214D01*
X0334570Y0112412D01*
X0334810Y0112603D01*
X0335054Y0112789D01*
X0335302Y0112969D01*
X0335555Y0113142D01*
X0335813Y0113310D01*
X0336074Y0113471D01*
X0336339Y0113625D01*
X0336608Y0113773D01*
X0336880Y0113914D01*
X0337156Y0114049D01*
X0337434Y0114177D01*
X0337716Y0114297D01*
X0338001Y0114411D01*
X0338289Y0114518D01*
X0338579Y0114618D01*
X0338871Y0114711D01*
X0339166Y0114796D01*
X0339463Y0114874D01*
X0339761Y0114945D01*
X0340061Y0115009D01*
X0340363Y0115065D01*
X0340666Y0115114D01*
X0340970Y0115155D01*
X0341275Y0115189D01*
X0341580Y0115215D01*
X0341887Y0115234D01*
X0342193Y0115245D01*
X0342500Y0115249D01*
X0342807Y0115245D01*
X0343113Y0115234D01*
X0343420Y0115215D01*
X0343725Y0115189D01*
X0344030Y0115155D01*
X0344334Y0115114D01*
X0344637Y0115065D01*
X0344939Y0115009D01*
X0345239Y0114945D01*
X0345537Y0114874D01*
X0345834Y0114796D01*
X0346129Y0114711D01*
X0346421Y0114618D01*
X0346711Y0114518D01*
X0346999Y0114411D01*
X0347284Y0114297D01*
X0347566Y0114177D01*
X0347844Y0114049D01*
X0348120Y0113914D01*
X0348392Y0113773D01*
X0348661Y0113625D01*
X0348926Y0113471D01*
X0349187Y0113310D01*
X0349445Y0113142D01*
X0349698Y0112969D01*
X0349946Y0112789D01*
X0350190Y0112603D01*
X0350430Y0112412D01*
X0350665Y0112214D01*
X0350894Y0112011D01*
X0351119Y0111802D01*
X0351339Y0111588D01*
X0351553Y0111368D01*
X0351762Y0111143D01*
X0351965Y0110914D01*
X0352163Y0110679D01*
X0352354Y0110439D01*
X0352540Y0110195D01*
X0352720Y0109947D01*
X0352893Y0109694D01*
X0353061Y0109436D01*
X0353222Y0109175D01*
X0353376Y0108910D01*
X0353524Y0108641D01*
X0353665Y0108369D01*
X0353800Y0108093D01*
X0353928Y0107815D01*
X0354048Y0107533D01*
X0354162Y0107248D01*
X0354269Y0106960D01*
X0354369Y0106670D01*
X0354462Y0106378D01*
X0354547Y0106083D01*
X0354625Y0105786D01*
X0354696Y0105488D01*
X0354760Y0105188D01*
X0354816Y0104886D01*
X0354865Y0104583D01*
X0354906Y0104279D01*
X0354940Y0103974D01*
X0354966Y0103669D01*
X0354985Y0103362D01*
X0354996Y0103056D01*
X0355000Y0102749D01*
X0354996Y0102442D01*
X0354985Y0102136D01*
X0354966Y0101829D01*
X0354940Y0101524D01*
X0354906Y0101219D01*
X0354865Y0100915D01*
X0354816Y0100612D01*
X0354760Y0100310D01*
X0354696Y0100010D01*
X0354625Y0099712D01*
X0354547Y0099415D01*
X0354462Y0099120D01*
X0354369Y0098828D01*
X0354269Y0098538D01*
X0354162Y0098250D01*
X0354048Y0097965D01*
X0353928Y0097683D01*
X0353800Y0097405D01*
X0353665Y0097129D01*
X0353524Y0096857D01*
X0353376Y0096588D01*
X0353222Y0096323D01*
X0353061Y0096062D01*
X0352893Y0095804D01*
X0352720Y0095551D01*
X0352540Y0095303D01*
X0352354Y0095059D01*
X0352163Y0094819D01*
X0351965Y0094584D01*
X0351762Y0094355D01*
X0351553Y0094130D01*
X0351339Y0093910D01*
X0351119Y0093696D01*
X0350894Y0093487D01*
X0350665Y0093284D01*
X0350430Y0093086D01*
X0350190Y0092895D01*
X0349946Y0092709D01*
X0349698Y0092529D01*
X0349445Y0092356D01*
X0349187Y0092188D01*
X0348926Y0092027D01*
X0348661Y0091873D01*
X0348392Y0091725D01*
X0348120Y0091584D01*
X0347844Y0091449D01*
X0347566Y0091321D01*
X0347284Y0091201D01*
X0346999Y0091087D01*
X0346711Y0090980D01*
X0346421Y0090880D01*
X0346129Y0090787D01*
X0345834Y0090702D01*
X0345537Y0090624D01*
X0345239Y0090553D01*
X0344939Y0090489D01*
X0344637Y0090433D01*
X0344334Y0090384D01*
X0344030Y0090343D01*
X0343725Y0090309D01*
X0343420Y0090283D01*
X0343113Y0090264D01*
X0342807Y0090253D01*
X0342500Y0090249D01*
X0342193Y0090253D01*
X0341887Y0090264D01*
X0341580Y0090283D01*
X0341275Y0090309D01*
X0340970Y0090343D01*
X0340666Y0090384D01*
X0340363Y0090433D01*
X0340061Y0090489D01*
X0339761Y0090553D01*
X0339463Y0090624D01*
X0339166Y0090702D01*
X0338871Y0090787D01*
X0338579Y0090880D01*
X0338289Y0090980D01*
X0338001Y0091087D01*
X0337716Y0091201D01*
X0337434Y0091321D01*
X0337156Y0091449D01*
X0336880Y0091584D01*
X0336608Y0091725D01*
X0336339Y0091873D01*
X0336074Y0092027D01*
X0335813Y0092188D01*
X0335555Y0092356D01*
X0335302Y0092529D01*
X0335054Y0092709D01*
X0334810Y0092895D01*
X0334570Y0093086D01*
X0334335Y0093284D01*
X0334106Y0093487D01*
X0333881Y0093696D01*
X0333661Y0093910D01*
X0333447Y0094130D01*
X0333238Y0094355D01*
X0333035Y0094584D01*
X0332837Y0094819D01*
X0332646Y0095059D01*
X0332460Y0095303D01*
X0332280Y0095551D01*
X0332107Y0095804D01*
X0331939Y0096062D01*
X0331778Y0096323D01*
X0331624Y0096588D01*
X0331476Y0096857D01*
X0331335Y0097129D01*
X0331200Y0097405D01*
X0331072Y0097683D01*
X0330952Y0097965D01*
X0330838Y0098250D01*
X0330731Y0098538D01*
X0330631Y0098828D01*
X0330538Y0099120D01*
X0330453Y0099415D01*
X0330375Y0099712D01*
X0330304Y0100010D01*
X0330240Y0100310D01*
X0330184Y0100612D01*
X0330135Y0100915D01*
X0330094Y0101219D01*
X0330060Y0101524D01*
X0330034Y0101829D01*
X0330015Y0102136D01*
X0330004Y0102442D01*
X0330000Y0102749D01*
X0339552Y0155843D02*
X0339554Y0155983D01*
X0339560Y0156123D01*
X0339570Y0156262D01*
X0339584Y0156401D01*
X0339602Y0156540D01*
X0339623Y0156678D01*
X0339649Y0156816D01*
X0339679Y0156953D01*
X0339712Y0157088D01*
X0339750Y0157223D01*
X0339791Y0157357D01*
X0339836Y0157490D01*
X0339884Y0157621D01*
X0339937Y0157750D01*
X0339993Y0157879D01*
X0340052Y0158005D01*
X0340116Y0158130D01*
X0340182Y0158253D01*
X0340253Y0158374D01*
X0340326Y0158493D01*
X0340403Y0158610D01*
X0340484Y0158724D01*
X0340567Y0158836D01*
X0340654Y0158946D01*
X0340744Y0159054D01*
X0340836Y0159158D01*
X0340932Y0159260D01*
X0341031Y0159360D01*
X0341132Y0159456D01*
X0341236Y0159550D01*
X0341343Y0159640D01*
X0341452Y0159727D01*
X0341564Y0159812D01*
X0341678Y0159893D01*
X0341794Y0159971D01*
X0341912Y0160045D01*
X0342033Y0160116D01*
X0342155Y0160184D01*
X0342280Y0160248D01*
X0342406Y0160309D01*
X0342533Y0160366D01*
X0342663Y0160419D01*
X0342794Y0160469D01*
X0342926Y0160514D01*
X0343059Y0160557D01*
X0343194Y0160595D01*
X0343329Y0160629D01*
X0343466Y0160660D01*
X0343603Y0160687D01*
X0343741Y0160709D01*
X0343880Y0160728D01*
X0344019Y0160743D01*
X0344158Y0160754D01*
X0344298Y0160761D01*
X0344438Y0160764D01*
X0344578Y0160763D01*
X0344718Y0160758D01*
X0344857Y0160749D01*
X0344997Y0160736D01*
X0345136Y0160719D01*
X0345274Y0160698D01*
X0345412Y0160674D01*
X0345549Y0160645D01*
X0345685Y0160613D01*
X0345820Y0160576D01*
X0345954Y0160536D01*
X0346087Y0160492D01*
X0346218Y0160444D01*
X0346348Y0160393D01*
X0346477Y0160338D01*
X0346604Y0160279D01*
X0346729Y0160216D01*
X0346852Y0160151D01*
X0346974Y0160081D01*
X0347093Y0160008D01*
X0347211Y0159932D01*
X0347326Y0159853D01*
X0347439Y0159770D01*
X0347549Y0159684D01*
X0347657Y0159595D01*
X0347762Y0159503D01*
X0347865Y0159408D01*
X0347965Y0159310D01*
X0348062Y0159210D01*
X0348156Y0159106D01*
X0348248Y0159000D01*
X0348336Y0158892D01*
X0348421Y0158781D01*
X0348503Y0158667D01*
X0348582Y0158551D01*
X0348657Y0158434D01*
X0348729Y0158314D01*
X0348797Y0158192D01*
X0348862Y0158068D01*
X0348924Y0157942D01*
X0348982Y0157815D01*
X0349036Y0157686D01*
X0349087Y0157555D01*
X0349133Y0157423D01*
X0349176Y0157290D01*
X0349216Y0157156D01*
X0349251Y0157021D01*
X0349283Y0156884D01*
X0349310Y0156747D01*
X0349334Y0156609D01*
X0349354Y0156471D01*
X0349370Y0156332D01*
X0349382Y0156192D01*
X0349390Y0156053D01*
X0349394Y0155913D01*
X0349394Y0155773D01*
X0349390Y0155633D01*
X0349382Y0155494D01*
X0349370Y0155354D01*
X0349354Y0155215D01*
X0349334Y0155077D01*
X0349310Y0154939D01*
X0349283Y0154802D01*
X0349251Y0154665D01*
X0349216Y0154530D01*
X0349176Y0154396D01*
X0349133Y0154263D01*
X0349087Y0154131D01*
X0349036Y0154000D01*
X0348982Y0153871D01*
X0348924Y0153744D01*
X0348862Y0153618D01*
X0348797Y0153494D01*
X0348729Y0153372D01*
X0348657Y0153252D01*
X0348582Y0153135D01*
X0348503Y0153019D01*
X0348421Y0152905D01*
X0348336Y0152794D01*
X0348248Y0152686D01*
X0348156Y0152580D01*
X0348062Y0152476D01*
X0347965Y0152376D01*
X0347865Y0152278D01*
X0347762Y0152183D01*
X0347657Y0152091D01*
X0347549Y0152002D01*
X0347439Y0151916D01*
X0347326Y0151833D01*
X0347211Y0151754D01*
X0347093Y0151678D01*
X0346974Y0151605D01*
X0346852Y0151535D01*
X0346729Y0151470D01*
X0346604Y0151407D01*
X0346477Y0151348D01*
X0346348Y0151293D01*
X0346218Y0151242D01*
X0346087Y0151194D01*
X0345954Y0151150D01*
X0345820Y0151110D01*
X0345685Y0151073D01*
X0345549Y0151041D01*
X0345412Y0151012D01*
X0345274Y0150988D01*
X0345136Y0150967D01*
X0344997Y0150950D01*
X0344857Y0150937D01*
X0344718Y0150928D01*
X0344578Y0150923D01*
X0344438Y0150922D01*
X0344298Y0150925D01*
X0344158Y0150932D01*
X0344019Y0150943D01*
X0343880Y0150958D01*
X0343741Y0150977D01*
X0343603Y0150999D01*
X0343466Y0151026D01*
X0343329Y0151057D01*
X0343194Y0151091D01*
X0343059Y0151129D01*
X0342926Y0151172D01*
X0342794Y0151217D01*
X0342663Y0151267D01*
X0342533Y0151320D01*
X0342406Y0151377D01*
X0342280Y0151438D01*
X0342155Y0151502D01*
X0342033Y0151570D01*
X0341912Y0151641D01*
X0341794Y0151715D01*
X0341678Y0151793D01*
X0341564Y0151874D01*
X0341452Y0151959D01*
X0341343Y0152046D01*
X0341236Y0152136D01*
X0341132Y0152230D01*
X0341031Y0152326D01*
X0340932Y0152426D01*
X0340836Y0152528D01*
X0340744Y0152632D01*
X0340654Y0152740D01*
X0340567Y0152850D01*
X0340484Y0152962D01*
X0340403Y0153076D01*
X0340326Y0153193D01*
X0340253Y0153312D01*
X0340182Y0153433D01*
X0340116Y0153556D01*
X0340052Y0153681D01*
X0339993Y0153807D01*
X0339937Y0153936D01*
X0339884Y0154065D01*
X0339836Y0154196D01*
X0339791Y0154329D01*
X0339750Y0154463D01*
X0339712Y0154598D01*
X0339679Y0154733D01*
X0339649Y0154870D01*
X0339623Y0155008D01*
X0339602Y0155146D01*
X0339584Y0155285D01*
X0339570Y0155424D01*
X0339560Y0155563D01*
X0339554Y0155703D01*
X0339552Y0155843D01*
X0315252Y0157316D02*
X0315254Y0157469D01*
X0315260Y0157623D01*
X0315270Y0157776D01*
X0315284Y0157928D01*
X0315302Y0158081D01*
X0315324Y0158232D01*
X0315349Y0158383D01*
X0315379Y0158534D01*
X0315413Y0158684D01*
X0315450Y0158832D01*
X0315491Y0158980D01*
X0315536Y0159126D01*
X0315585Y0159272D01*
X0315638Y0159416D01*
X0315694Y0159558D01*
X0315754Y0159699D01*
X0315818Y0159839D01*
X0315885Y0159977D01*
X0315956Y0160113D01*
X0316031Y0160247D01*
X0316108Y0160379D01*
X0316190Y0160509D01*
X0316274Y0160637D01*
X0316362Y0160763D01*
X0316453Y0160886D01*
X0316547Y0161007D01*
X0316645Y0161125D01*
X0316745Y0161241D01*
X0316849Y0161354D01*
X0316955Y0161465D01*
X0317064Y0161573D01*
X0317176Y0161678D01*
X0317290Y0161779D01*
X0317408Y0161878D01*
X0317527Y0161974D01*
X0317649Y0162067D01*
X0317774Y0162156D01*
X0317901Y0162243D01*
X0318030Y0162325D01*
X0318161Y0162405D01*
X0318294Y0162481D01*
X0318429Y0162554D01*
X0318566Y0162623D01*
X0318705Y0162688D01*
X0318845Y0162750D01*
X0318987Y0162808D01*
X0319130Y0162863D01*
X0319275Y0162914D01*
X0319421Y0162961D01*
X0319568Y0163004D01*
X0319716Y0163043D01*
X0319865Y0163079D01*
X0320015Y0163110D01*
X0320166Y0163138D01*
X0320317Y0163162D01*
X0320470Y0163182D01*
X0320622Y0163198D01*
X0320775Y0163210D01*
X0320928Y0163218D01*
X0321081Y0163222D01*
X0321235Y0163222D01*
X0321388Y0163218D01*
X0321541Y0163210D01*
X0321694Y0163198D01*
X0321846Y0163182D01*
X0321999Y0163162D01*
X0322150Y0163138D01*
X0322301Y0163110D01*
X0322451Y0163079D01*
X0322600Y0163043D01*
X0322748Y0163004D01*
X0322895Y0162961D01*
X0323041Y0162914D01*
X0323186Y0162863D01*
X0323329Y0162808D01*
X0323471Y0162750D01*
X0323611Y0162688D01*
X0323750Y0162623D01*
X0323887Y0162554D01*
X0324022Y0162481D01*
X0324155Y0162405D01*
X0324286Y0162325D01*
X0324415Y0162243D01*
X0324542Y0162156D01*
X0324667Y0162067D01*
X0324789Y0161974D01*
X0324908Y0161878D01*
X0325026Y0161779D01*
X0325140Y0161678D01*
X0325252Y0161573D01*
X0325361Y0161465D01*
X0325467Y0161354D01*
X0325571Y0161241D01*
X0325671Y0161125D01*
X0325769Y0161007D01*
X0325863Y0160886D01*
X0325954Y0160763D01*
X0326042Y0160637D01*
X0326126Y0160509D01*
X0326208Y0160379D01*
X0326285Y0160247D01*
X0326360Y0160113D01*
X0326431Y0159977D01*
X0326498Y0159839D01*
X0326562Y0159699D01*
X0326622Y0159558D01*
X0326678Y0159416D01*
X0326731Y0159272D01*
X0326780Y0159126D01*
X0326825Y0158980D01*
X0326866Y0158832D01*
X0326903Y0158684D01*
X0326937Y0158534D01*
X0326967Y0158383D01*
X0326992Y0158232D01*
X0327014Y0158081D01*
X0327032Y0157928D01*
X0327046Y0157776D01*
X0327056Y0157623D01*
X0327062Y0157469D01*
X0327064Y0157316D01*
X0327062Y0157163D01*
X0327056Y0157009D01*
X0327046Y0156856D01*
X0327032Y0156704D01*
X0327014Y0156551D01*
X0326992Y0156400D01*
X0326967Y0156249D01*
X0326937Y0156098D01*
X0326903Y0155948D01*
X0326866Y0155800D01*
X0326825Y0155652D01*
X0326780Y0155506D01*
X0326731Y0155360D01*
X0326678Y0155216D01*
X0326622Y0155074D01*
X0326562Y0154933D01*
X0326498Y0154793D01*
X0326431Y0154655D01*
X0326360Y0154519D01*
X0326285Y0154385D01*
X0326208Y0154253D01*
X0326126Y0154123D01*
X0326042Y0153995D01*
X0325954Y0153869D01*
X0325863Y0153746D01*
X0325769Y0153625D01*
X0325671Y0153507D01*
X0325571Y0153391D01*
X0325467Y0153278D01*
X0325361Y0153167D01*
X0325252Y0153059D01*
X0325140Y0152954D01*
X0325026Y0152853D01*
X0324908Y0152754D01*
X0324789Y0152658D01*
X0324667Y0152565D01*
X0324542Y0152476D01*
X0324415Y0152389D01*
X0324286Y0152307D01*
X0324155Y0152227D01*
X0324022Y0152151D01*
X0323887Y0152078D01*
X0323750Y0152009D01*
X0323611Y0151944D01*
X0323471Y0151882D01*
X0323329Y0151824D01*
X0323186Y0151769D01*
X0323041Y0151718D01*
X0322895Y0151671D01*
X0322748Y0151628D01*
X0322600Y0151589D01*
X0322451Y0151553D01*
X0322301Y0151522D01*
X0322150Y0151494D01*
X0321999Y0151470D01*
X0321846Y0151450D01*
X0321694Y0151434D01*
X0321541Y0151422D01*
X0321388Y0151414D01*
X0321235Y0151410D01*
X0321081Y0151410D01*
X0320928Y0151414D01*
X0320775Y0151422D01*
X0320622Y0151434D01*
X0320470Y0151450D01*
X0320317Y0151470D01*
X0320166Y0151494D01*
X0320015Y0151522D01*
X0319865Y0151553D01*
X0319716Y0151589D01*
X0319568Y0151628D01*
X0319421Y0151671D01*
X0319275Y0151718D01*
X0319130Y0151769D01*
X0318987Y0151824D01*
X0318845Y0151882D01*
X0318705Y0151944D01*
X0318566Y0152009D01*
X0318429Y0152078D01*
X0318294Y0152151D01*
X0318161Y0152227D01*
X0318030Y0152307D01*
X0317901Y0152389D01*
X0317774Y0152476D01*
X0317649Y0152565D01*
X0317527Y0152658D01*
X0317408Y0152754D01*
X0317290Y0152853D01*
X0317176Y0152954D01*
X0317064Y0153059D01*
X0316955Y0153167D01*
X0316849Y0153278D01*
X0316745Y0153391D01*
X0316645Y0153507D01*
X0316547Y0153625D01*
X0316453Y0153746D01*
X0316362Y0153869D01*
X0316274Y0153995D01*
X0316190Y0154123D01*
X0316108Y0154253D01*
X0316031Y0154385D01*
X0315956Y0154519D01*
X0315885Y0154655D01*
X0315818Y0154793D01*
X0315754Y0154933D01*
X0315694Y0155074D01*
X0315638Y0155216D01*
X0315585Y0155360D01*
X0315536Y0155506D01*
X0315491Y0155652D01*
X0315450Y0155800D01*
X0315413Y0155948D01*
X0315379Y0156098D01*
X0315349Y0156249D01*
X0315324Y0156400D01*
X0315302Y0156551D01*
X0315284Y0156704D01*
X0315270Y0156856D01*
X0315260Y0157009D01*
X0315254Y0157163D01*
X0315252Y0157316D01*
X0339552Y0258206D02*
X0339554Y0258346D01*
X0339560Y0258486D01*
X0339570Y0258625D01*
X0339584Y0258764D01*
X0339602Y0258903D01*
X0339623Y0259041D01*
X0339649Y0259179D01*
X0339679Y0259316D01*
X0339712Y0259451D01*
X0339750Y0259586D01*
X0339791Y0259720D01*
X0339836Y0259853D01*
X0339884Y0259984D01*
X0339937Y0260113D01*
X0339993Y0260242D01*
X0340052Y0260368D01*
X0340116Y0260493D01*
X0340182Y0260616D01*
X0340253Y0260737D01*
X0340326Y0260856D01*
X0340403Y0260973D01*
X0340484Y0261087D01*
X0340567Y0261199D01*
X0340654Y0261309D01*
X0340744Y0261417D01*
X0340836Y0261521D01*
X0340932Y0261623D01*
X0341031Y0261723D01*
X0341132Y0261819D01*
X0341236Y0261913D01*
X0341343Y0262003D01*
X0341452Y0262090D01*
X0341564Y0262175D01*
X0341678Y0262256D01*
X0341794Y0262334D01*
X0341912Y0262408D01*
X0342033Y0262479D01*
X0342155Y0262547D01*
X0342280Y0262611D01*
X0342406Y0262672D01*
X0342533Y0262729D01*
X0342663Y0262782D01*
X0342794Y0262832D01*
X0342926Y0262877D01*
X0343059Y0262920D01*
X0343194Y0262958D01*
X0343329Y0262992D01*
X0343466Y0263023D01*
X0343603Y0263050D01*
X0343741Y0263072D01*
X0343880Y0263091D01*
X0344019Y0263106D01*
X0344158Y0263117D01*
X0344298Y0263124D01*
X0344438Y0263127D01*
X0344578Y0263126D01*
X0344718Y0263121D01*
X0344857Y0263112D01*
X0344997Y0263099D01*
X0345136Y0263082D01*
X0345274Y0263061D01*
X0345412Y0263037D01*
X0345549Y0263008D01*
X0345685Y0262976D01*
X0345820Y0262939D01*
X0345954Y0262899D01*
X0346087Y0262855D01*
X0346218Y0262807D01*
X0346348Y0262756D01*
X0346477Y0262701D01*
X0346604Y0262642D01*
X0346729Y0262579D01*
X0346852Y0262514D01*
X0346974Y0262444D01*
X0347093Y0262371D01*
X0347211Y0262295D01*
X0347326Y0262216D01*
X0347439Y0262133D01*
X0347549Y0262047D01*
X0347657Y0261958D01*
X0347762Y0261866D01*
X0347865Y0261771D01*
X0347965Y0261673D01*
X0348062Y0261573D01*
X0348156Y0261469D01*
X0348248Y0261363D01*
X0348336Y0261255D01*
X0348421Y0261144D01*
X0348503Y0261030D01*
X0348582Y0260914D01*
X0348657Y0260797D01*
X0348729Y0260677D01*
X0348797Y0260555D01*
X0348862Y0260431D01*
X0348924Y0260305D01*
X0348982Y0260178D01*
X0349036Y0260049D01*
X0349087Y0259918D01*
X0349133Y0259786D01*
X0349176Y0259653D01*
X0349216Y0259519D01*
X0349251Y0259384D01*
X0349283Y0259247D01*
X0349310Y0259110D01*
X0349334Y0258972D01*
X0349354Y0258834D01*
X0349370Y0258695D01*
X0349382Y0258555D01*
X0349390Y0258416D01*
X0349394Y0258276D01*
X0349394Y0258136D01*
X0349390Y0257996D01*
X0349382Y0257857D01*
X0349370Y0257717D01*
X0349354Y0257578D01*
X0349334Y0257440D01*
X0349310Y0257302D01*
X0349283Y0257165D01*
X0349251Y0257028D01*
X0349216Y0256893D01*
X0349176Y0256759D01*
X0349133Y0256626D01*
X0349087Y0256494D01*
X0349036Y0256363D01*
X0348982Y0256234D01*
X0348924Y0256107D01*
X0348862Y0255981D01*
X0348797Y0255857D01*
X0348729Y0255735D01*
X0348657Y0255615D01*
X0348582Y0255498D01*
X0348503Y0255382D01*
X0348421Y0255268D01*
X0348336Y0255157D01*
X0348248Y0255049D01*
X0348156Y0254943D01*
X0348062Y0254839D01*
X0347965Y0254739D01*
X0347865Y0254641D01*
X0347762Y0254546D01*
X0347657Y0254454D01*
X0347549Y0254365D01*
X0347439Y0254279D01*
X0347326Y0254196D01*
X0347211Y0254117D01*
X0347093Y0254041D01*
X0346974Y0253968D01*
X0346852Y0253898D01*
X0346729Y0253833D01*
X0346604Y0253770D01*
X0346477Y0253711D01*
X0346348Y0253656D01*
X0346218Y0253605D01*
X0346087Y0253557D01*
X0345954Y0253513D01*
X0345820Y0253473D01*
X0345685Y0253436D01*
X0345549Y0253404D01*
X0345412Y0253375D01*
X0345274Y0253351D01*
X0345136Y0253330D01*
X0344997Y0253313D01*
X0344857Y0253300D01*
X0344718Y0253291D01*
X0344578Y0253286D01*
X0344438Y0253285D01*
X0344298Y0253288D01*
X0344158Y0253295D01*
X0344019Y0253306D01*
X0343880Y0253321D01*
X0343741Y0253340D01*
X0343603Y0253362D01*
X0343466Y0253389D01*
X0343329Y0253420D01*
X0343194Y0253454D01*
X0343059Y0253492D01*
X0342926Y0253535D01*
X0342794Y0253580D01*
X0342663Y0253630D01*
X0342533Y0253683D01*
X0342406Y0253740D01*
X0342280Y0253801D01*
X0342155Y0253865D01*
X0342033Y0253933D01*
X0341912Y0254004D01*
X0341794Y0254078D01*
X0341678Y0254156D01*
X0341564Y0254237D01*
X0341452Y0254322D01*
X0341343Y0254409D01*
X0341236Y0254499D01*
X0341132Y0254593D01*
X0341031Y0254689D01*
X0340932Y0254789D01*
X0340836Y0254891D01*
X0340744Y0254995D01*
X0340654Y0255103D01*
X0340567Y0255213D01*
X0340484Y0255325D01*
X0340403Y0255439D01*
X0340326Y0255556D01*
X0340253Y0255675D01*
X0340182Y0255796D01*
X0340116Y0255919D01*
X0340052Y0256044D01*
X0339993Y0256170D01*
X0339937Y0256299D01*
X0339884Y0256428D01*
X0339836Y0256559D01*
X0339791Y0256692D01*
X0339750Y0256826D01*
X0339712Y0256961D01*
X0339679Y0257096D01*
X0339649Y0257233D01*
X0339623Y0257371D01*
X0339602Y0257509D01*
X0339584Y0257648D01*
X0339570Y0257787D01*
X0339560Y0257926D01*
X0339554Y0258066D01*
X0339552Y0258206D01*
X0339552Y0348757D02*
X0339554Y0348897D01*
X0339560Y0349037D01*
X0339570Y0349176D01*
X0339584Y0349315D01*
X0339602Y0349454D01*
X0339623Y0349592D01*
X0339649Y0349730D01*
X0339679Y0349867D01*
X0339712Y0350002D01*
X0339750Y0350137D01*
X0339791Y0350271D01*
X0339836Y0350404D01*
X0339884Y0350535D01*
X0339937Y0350664D01*
X0339993Y0350793D01*
X0340052Y0350919D01*
X0340116Y0351044D01*
X0340182Y0351167D01*
X0340253Y0351288D01*
X0340326Y0351407D01*
X0340403Y0351524D01*
X0340484Y0351638D01*
X0340567Y0351750D01*
X0340654Y0351860D01*
X0340744Y0351968D01*
X0340836Y0352072D01*
X0340932Y0352174D01*
X0341031Y0352274D01*
X0341132Y0352370D01*
X0341236Y0352464D01*
X0341343Y0352554D01*
X0341452Y0352641D01*
X0341564Y0352726D01*
X0341678Y0352807D01*
X0341794Y0352885D01*
X0341912Y0352959D01*
X0342033Y0353030D01*
X0342155Y0353098D01*
X0342280Y0353162D01*
X0342406Y0353223D01*
X0342533Y0353280D01*
X0342663Y0353333D01*
X0342794Y0353383D01*
X0342926Y0353428D01*
X0343059Y0353471D01*
X0343194Y0353509D01*
X0343329Y0353543D01*
X0343466Y0353574D01*
X0343603Y0353601D01*
X0343741Y0353623D01*
X0343880Y0353642D01*
X0344019Y0353657D01*
X0344158Y0353668D01*
X0344298Y0353675D01*
X0344438Y0353678D01*
X0344578Y0353677D01*
X0344718Y0353672D01*
X0344857Y0353663D01*
X0344997Y0353650D01*
X0345136Y0353633D01*
X0345274Y0353612D01*
X0345412Y0353588D01*
X0345549Y0353559D01*
X0345685Y0353527D01*
X0345820Y0353490D01*
X0345954Y0353450D01*
X0346087Y0353406D01*
X0346218Y0353358D01*
X0346348Y0353307D01*
X0346477Y0353252D01*
X0346604Y0353193D01*
X0346729Y0353130D01*
X0346852Y0353065D01*
X0346974Y0352995D01*
X0347093Y0352922D01*
X0347211Y0352846D01*
X0347326Y0352767D01*
X0347439Y0352684D01*
X0347549Y0352598D01*
X0347657Y0352509D01*
X0347762Y0352417D01*
X0347865Y0352322D01*
X0347965Y0352224D01*
X0348062Y0352124D01*
X0348156Y0352020D01*
X0348248Y0351914D01*
X0348336Y0351806D01*
X0348421Y0351695D01*
X0348503Y0351581D01*
X0348582Y0351465D01*
X0348657Y0351348D01*
X0348729Y0351228D01*
X0348797Y0351106D01*
X0348862Y0350982D01*
X0348924Y0350856D01*
X0348982Y0350729D01*
X0349036Y0350600D01*
X0349087Y0350469D01*
X0349133Y0350337D01*
X0349176Y0350204D01*
X0349216Y0350070D01*
X0349251Y0349935D01*
X0349283Y0349798D01*
X0349310Y0349661D01*
X0349334Y0349523D01*
X0349354Y0349385D01*
X0349370Y0349246D01*
X0349382Y0349106D01*
X0349390Y0348967D01*
X0349394Y0348827D01*
X0349394Y0348687D01*
X0349390Y0348547D01*
X0349382Y0348408D01*
X0349370Y0348268D01*
X0349354Y0348129D01*
X0349334Y0347991D01*
X0349310Y0347853D01*
X0349283Y0347716D01*
X0349251Y0347579D01*
X0349216Y0347444D01*
X0349176Y0347310D01*
X0349133Y0347177D01*
X0349087Y0347045D01*
X0349036Y0346914D01*
X0348982Y0346785D01*
X0348924Y0346658D01*
X0348862Y0346532D01*
X0348797Y0346408D01*
X0348729Y0346286D01*
X0348657Y0346166D01*
X0348582Y0346049D01*
X0348503Y0345933D01*
X0348421Y0345819D01*
X0348336Y0345708D01*
X0348248Y0345600D01*
X0348156Y0345494D01*
X0348062Y0345390D01*
X0347965Y0345290D01*
X0347865Y0345192D01*
X0347762Y0345097D01*
X0347657Y0345005D01*
X0347549Y0344916D01*
X0347439Y0344830D01*
X0347326Y0344747D01*
X0347211Y0344668D01*
X0347093Y0344592D01*
X0346974Y0344519D01*
X0346852Y0344449D01*
X0346729Y0344384D01*
X0346604Y0344321D01*
X0346477Y0344262D01*
X0346348Y0344207D01*
X0346218Y0344156D01*
X0346087Y0344108D01*
X0345954Y0344064D01*
X0345820Y0344024D01*
X0345685Y0343987D01*
X0345549Y0343955D01*
X0345412Y0343926D01*
X0345274Y0343902D01*
X0345136Y0343881D01*
X0344997Y0343864D01*
X0344857Y0343851D01*
X0344718Y0343842D01*
X0344578Y0343837D01*
X0344438Y0343836D01*
X0344298Y0343839D01*
X0344158Y0343846D01*
X0344019Y0343857D01*
X0343880Y0343872D01*
X0343741Y0343891D01*
X0343603Y0343913D01*
X0343466Y0343940D01*
X0343329Y0343971D01*
X0343194Y0344005D01*
X0343059Y0344043D01*
X0342926Y0344086D01*
X0342794Y0344131D01*
X0342663Y0344181D01*
X0342533Y0344234D01*
X0342406Y0344291D01*
X0342280Y0344352D01*
X0342155Y0344416D01*
X0342033Y0344484D01*
X0341912Y0344555D01*
X0341794Y0344629D01*
X0341678Y0344707D01*
X0341564Y0344788D01*
X0341452Y0344873D01*
X0341343Y0344960D01*
X0341236Y0345050D01*
X0341132Y0345144D01*
X0341031Y0345240D01*
X0340932Y0345340D01*
X0340836Y0345442D01*
X0340744Y0345546D01*
X0340654Y0345654D01*
X0340567Y0345764D01*
X0340484Y0345876D01*
X0340403Y0345990D01*
X0340326Y0346107D01*
X0340253Y0346226D01*
X0340182Y0346347D01*
X0340116Y0346470D01*
X0340052Y0346595D01*
X0339993Y0346721D01*
X0339937Y0346850D01*
X0339884Y0346979D01*
X0339836Y0347110D01*
X0339791Y0347243D01*
X0339750Y0347377D01*
X0339712Y0347512D01*
X0339679Y0347647D01*
X0339649Y0347784D01*
X0339623Y0347922D01*
X0339602Y0348060D01*
X0339584Y0348199D01*
X0339570Y0348338D01*
X0339560Y0348477D01*
X0339554Y0348617D01*
X0339552Y0348757D01*
X0315252Y0373851D02*
X0315254Y0374004D01*
X0315260Y0374158D01*
X0315270Y0374311D01*
X0315284Y0374463D01*
X0315302Y0374616D01*
X0315324Y0374767D01*
X0315349Y0374918D01*
X0315379Y0375069D01*
X0315413Y0375219D01*
X0315450Y0375367D01*
X0315491Y0375515D01*
X0315536Y0375661D01*
X0315585Y0375807D01*
X0315638Y0375951D01*
X0315694Y0376093D01*
X0315754Y0376234D01*
X0315818Y0376374D01*
X0315885Y0376512D01*
X0315956Y0376648D01*
X0316031Y0376782D01*
X0316108Y0376914D01*
X0316190Y0377044D01*
X0316274Y0377172D01*
X0316362Y0377298D01*
X0316453Y0377421D01*
X0316547Y0377542D01*
X0316645Y0377660D01*
X0316745Y0377776D01*
X0316849Y0377889D01*
X0316955Y0378000D01*
X0317064Y0378108D01*
X0317176Y0378213D01*
X0317290Y0378314D01*
X0317408Y0378413D01*
X0317527Y0378509D01*
X0317649Y0378602D01*
X0317774Y0378691D01*
X0317901Y0378778D01*
X0318030Y0378860D01*
X0318161Y0378940D01*
X0318294Y0379016D01*
X0318429Y0379089D01*
X0318566Y0379158D01*
X0318705Y0379223D01*
X0318845Y0379285D01*
X0318987Y0379343D01*
X0319130Y0379398D01*
X0319275Y0379449D01*
X0319421Y0379496D01*
X0319568Y0379539D01*
X0319716Y0379578D01*
X0319865Y0379614D01*
X0320015Y0379645D01*
X0320166Y0379673D01*
X0320317Y0379697D01*
X0320470Y0379717D01*
X0320622Y0379733D01*
X0320775Y0379745D01*
X0320928Y0379753D01*
X0321081Y0379757D01*
X0321235Y0379757D01*
X0321388Y0379753D01*
X0321541Y0379745D01*
X0321694Y0379733D01*
X0321846Y0379717D01*
X0321999Y0379697D01*
X0322150Y0379673D01*
X0322301Y0379645D01*
X0322451Y0379614D01*
X0322600Y0379578D01*
X0322748Y0379539D01*
X0322895Y0379496D01*
X0323041Y0379449D01*
X0323186Y0379398D01*
X0323329Y0379343D01*
X0323471Y0379285D01*
X0323611Y0379223D01*
X0323750Y0379158D01*
X0323887Y0379089D01*
X0324022Y0379016D01*
X0324155Y0378940D01*
X0324286Y0378860D01*
X0324415Y0378778D01*
X0324542Y0378691D01*
X0324667Y0378602D01*
X0324789Y0378509D01*
X0324908Y0378413D01*
X0325026Y0378314D01*
X0325140Y0378213D01*
X0325252Y0378108D01*
X0325361Y0378000D01*
X0325467Y0377889D01*
X0325571Y0377776D01*
X0325671Y0377660D01*
X0325769Y0377542D01*
X0325863Y0377421D01*
X0325954Y0377298D01*
X0326042Y0377172D01*
X0326126Y0377044D01*
X0326208Y0376914D01*
X0326285Y0376782D01*
X0326360Y0376648D01*
X0326431Y0376512D01*
X0326498Y0376374D01*
X0326562Y0376234D01*
X0326622Y0376093D01*
X0326678Y0375951D01*
X0326731Y0375807D01*
X0326780Y0375661D01*
X0326825Y0375515D01*
X0326866Y0375367D01*
X0326903Y0375219D01*
X0326937Y0375069D01*
X0326967Y0374918D01*
X0326992Y0374767D01*
X0327014Y0374616D01*
X0327032Y0374463D01*
X0327046Y0374311D01*
X0327056Y0374158D01*
X0327062Y0374004D01*
X0327064Y0373851D01*
X0327062Y0373698D01*
X0327056Y0373544D01*
X0327046Y0373391D01*
X0327032Y0373239D01*
X0327014Y0373086D01*
X0326992Y0372935D01*
X0326967Y0372784D01*
X0326937Y0372633D01*
X0326903Y0372483D01*
X0326866Y0372335D01*
X0326825Y0372187D01*
X0326780Y0372041D01*
X0326731Y0371895D01*
X0326678Y0371751D01*
X0326622Y0371609D01*
X0326562Y0371468D01*
X0326498Y0371328D01*
X0326431Y0371190D01*
X0326360Y0371054D01*
X0326285Y0370920D01*
X0326208Y0370788D01*
X0326126Y0370658D01*
X0326042Y0370530D01*
X0325954Y0370404D01*
X0325863Y0370281D01*
X0325769Y0370160D01*
X0325671Y0370042D01*
X0325571Y0369926D01*
X0325467Y0369813D01*
X0325361Y0369702D01*
X0325252Y0369594D01*
X0325140Y0369489D01*
X0325026Y0369388D01*
X0324908Y0369289D01*
X0324789Y0369193D01*
X0324667Y0369100D01*
X0324542Y0369011D01*
X0324415Y0368924D01*
X0324286Y0368842D01*
X0324155Y0368762D01*
X0324022Y0368686D01*
X0323887Y0368613D01*
X0323750Y0368544D01*
X0323611Y0368479D01*
X0323471Y0368417D01*
X0323329Y0368359D01*
X0323186Y0368304D01*
X0323041Y0368253D01*
X0322895Y0368206D01*
X0322748Y0368163D01*
X0322600Y0368124D01*
X0322451Y0368088D01*
X0322301Y0368057D01*
X0322150Y0368029D01*
X0321999Y0368005D01*
X0321846Y0367985D01*
X0321694Y0367969D01*
X0321541Y0367957D01*
X0321388Y0367949D01*
X0321235Y0367945D01*
X0321081Y0367945D01*
X0320928Y0367949D01*
X0320775Y0367957D01*
X0320622Y0367969D01*
X0320470Y0367985D01*
X0320317Y0368005D01*
X0320166Y0368029D01*
X0320015Y0368057D01*
X0319865Y0368088D01*
X0319716Y0368124D01*
X0319568Y0368163D01*
X0319421Y0368206D01*
X0319275Y0368253D01*
X0319130Y0368304D01*
X0318987Y0368359D01*
X0318845Y0368417D01*
X0318705Y0368479D01*
X0318566Y0368544D01*
X0318429Y0368613D01*
X0318294Y0368686D01*
X0318161Y0368762D01*
X0318030Y0368842D01*
X0317901Y0368924D01*
X0317774Y0369011D01*
X0317649Y0369100D01*
X0317527Y0369193D01*
X0317408Y0369289D01*
X0317290Y0369388D01*
X0317176Y0369489D01*
X0317064Y0369594D01*
X0316955Y0369702D01*
X0316849Y0369813D01*
X0316745Y0369926D01*
X0316645Y0370042D01*
X0316547Y0370160D01*
X0316453Y0370281D01*
X0316362Y0370404D01*
X0316274Y0370530D01*
X0316190Y0370658D01*
X0316108Y0370788D01*
X0316031Y0370920D01*
X0315956Y0371054D01*
X0315885Y0371190D01*
X0315818Y0371328D01*
X0315754Y0371468D01*
X0315694Y0371609D01*
X0315638Y0371751D01*
X0315585Y0371895D01*
X0315536Y0372041D01*
X0315491Y0372187D01*
X0315450Y0372335D01*
X0315413Y0372483D01*
X0315379Y0372633D01*
X0315349Y0372784D01*
X0315324Y0372935D01*
X0315302Y0373086D01*
X0315284Y0373239D01*
X0315270Y0373391D01*
X0315260Y0373544D01*
X0315254Y0373698D01*
X0315252Y0373851D01*
X0312052Y0038166D02*
X0312054Y0038300D01*
X0312060Y0038434D01*
X0312070Y0038567D01*
X0312084Y0038701D01*
X0312102Y0038834D01*
X0312124Y0038966D01*
X0312149Y0039097D01*
X0312179Y0039228D01*
X0312213Y0039358D01*
X0312250Y0039486D01*
X0312291Y0039614D01*
X0312336Y0039740D01*
X0312385Y0039865D01*
X0312437Y0039988D01*
X0312493Y0040110D01*
X0312553Y0040230D01*
X0312616Y0040348D01*
X0312683Y0040464D01*
X0312753Y0040578D01*
X0312827Y0040690D01*
X0312904Y0040800D01*
X0312984Y0040908D01*
X0313067Y0041013D01*
X0313153Y0041115D01*
X0313242Y0041215D01*
X0313335Y0041312D01*
X0313430Y0041407D01*
X0313528Y0041498D01*
X0313628Y0041587D01*
X0313731Y0041672D01*
X0313837Y0041755D01*
X0313945Y0041834D01*
X0314055Y0041910D01*
X0314168Y0041983D01*
X0314283Y0042052D01*
X0314399Y0042118D01*
X0314518Y0042180D01*
X0314638Y0042239D01*
X0314761Y0042294D01*
X0314884Y0042346D01*
X0315009Y0042393D01*
X0315136Y0042437D01*
X0315264Y0042478D01*
X0315393Y0042514D01*
X0315523Y0042547D01*
X0315654Y0042575D01*
X0315785Y0042600D01*
X0315918Y0042621D01*
X0316051Y0042638D01*
X0316184Y0042651D01*
X0316318Y0042660D01*
X0316452Y0042665D01*
X0316586Y0042666D01*
X0316719Y0042663D01*
X0316853Y0042656D01*
X0316987Y0042645D01*
X0317120Y0042630D01*
X0317253Y0042611D01*
X0317385Y0042588D01*
X0317516Y0042562D01*
X0317646Y0042531D01*
X0317776Y0042496D01*
X0317904Y0042458D01*
X0318031Y0042416D01*
X0318157Y0042370D01*
X0318282Y0042320D01*
X0318405Y0042267D01*
X0318526Y0042210D01*
X0318646Y0042149D01*
X0318763Y0042085D01*
X0318879Y0042018D01*
X0318993Y0041947D01*
X0319104Y0041872D01*
X0319213Y0041795D01*
X0319320Y0041714D01*
X0319425Y0041630D01*
X0319526Y0041543D01*
X0319626Y0041453D01*
X0319722Y0041360D01*
X0319816Y0041264D01*
X0319907Y0041165D01*
X0319994Y0041064D01*
X0320079Y0040960D01*
X0320161Y0040854D01*
X0320239Y0040746D01*
X0320314Y0040635D01*
X0320386Y0040522D01*
X0320455Y0040406D01*
X0320520Y0040289D01*
X0320581Y0040170D01*
X0320639Y0040049D01*
X0320693Y0039927D01*
X0320744Y0039803D01*
X0320791Y0039677D01*
X0320834Y0039550D01*
X0320873Y0039422D01*
X0320909Y0039293D01*
X0320940Y0039163D01*
X0320968Y0039032D01*
X0320992Y0038900D01*
X0321012Y0038767D01*
X0321028Y0038634D01*
X0321040Y0038501D01*
X0321048Y0038367D01*
X0321052Y0038233D01*
X0321052Y0038099D01*
X0321048Y0037965D01*
X0321040Y0037831D01*
X0321028Y0037698D01*
X0321012Y0037565D01*
X0320992Y0037432D01*
X0320968Y0037300D01*
X0320940Y0037169D01*
X0320909Y0037039D01*
X0320873Y0036910D01*
X0320834Y0036782D01*
X0320791Y0036655D01*
X0320744Y0036529D01*
X0320693Y0036405D01*
X0320639Y0036283D01*
X0320581Y0036162D01*
X0320520Y0036043D01*
X0320455Y0035926D01*
X0320386Y0035810D01*
X0320314Y0035697D01*
X0320239Y0035586D01*
X0320161Y0035478D01*
X0320079Y0035372D01*
X0319994Y0035268D01*
X0319907Y0035167D01*
X0319816Y0035068D01*
X0319722Y0034972D01*
X0319626Y0034879D01*
X0319526Y0034789D01*
X0319425Y0034702D01*
X0319320Y0034618D01*
X0319213Y0034537D01*
X0319104Y0034460D01*
X0318993Y0034385D01*
X0318879Y0034314D01*
X0318763Y0034247D01*
X0318646Y0034183D01*
X0318526Y0034122D01*
X0318405Y0034065D01*
X0318282Y0034012D01*
X0318157Y0033962D01*
X0318031Y0033916D01*
X0317904Y0033874D01*
X0317776Y0033836D01*
X0317646Y0033801D01*
X0317516Y0033770D01*
X0317385Y0033744D01*
X0317253Y0033721D01*
X0317120Y0033702D01*
X0316987Y0033687D01*
X0316853Y0033676D01*
X0316719Y0033669D01*
X0316586Y0033666D01*
X0316452Y0033667D01*
X0316318Y0033672D01*
X0316184Y0033681D01*
X0316051Y0033694D01*
X0315918Y0033711D01*
X0315785Y0033732D01*
X0315654Y0033757D01*
X0315523Y0033785D01*
X0315393Y0033818D01*
X0315264Y0033854D01*
X0315136Y0033895D01*
X0315009Y0033939D01*
X0314884Y0033986D01*
X0314761Y0034038D01*
X0314638Y0034093D01*
X0314518Y0034152D01*
X0314399Y0034214D01*
X0314283Y0034280D01*
X0314168Y0034349D01*
X0314055Y0034422D01*
X0313945Y0034498D01*
X0313837Y0034577D01*
X0313731Y0034660D01*
X0313628Y0034745D01*
X0313528Y0034834D01*
X0313430Y0034925D01*
X0313335Y0035020D01*
X0313242Y0035117D01*
X0313153Y0035217D01*
X0313067Y0035319D01*
X0312984Y0035424D01*
X0312904Y0035532D01*
X0312827Y0035642D01*
X0312753Y0035754D01*
X0312683Y0035868D01*
X0312616Y0035984D01*
X0312553Y0036102D01*
X0312493Y0036222D01*
X0312437Y0036344D01*
X0312385Y0036467D01*
X0312336Y0036592D01*
X0312291Y0036718D01*
X0312250Y0036846D01*
X0312213Y0036974D01*
X0312179Y0037104D01*
X0312149Y0037235D01*
X0312124Y0037366D01*
X0312102Y0037498D01*
X0312084Y0037631D01*
X0312070Y0037765D01*
X0312060Y0037898D01*
X0312054Y0038032D01*
X0312052Y0038166D01*
D11*
X0203613Y0112987D02*
X0203613Y0115613D01*
X0203613Y0112987D02*
X0200987Y0112987D01*
X0200987Y0115613D01*
X0203613Y0115613D01*
X0203613Y0113861D02*
X0200987Y0113861D01*
X0200987Y0114735D02*
X0203613Y0114735D01*
X0203613Y0115609D02*
X0200987Y0115609D01*
X0203613Y0118987D02*
X0203613Y0121613D01*
X0203613Y0118987D02*
X0200987Y0118987D01*
X0200987Y0121613D01*
X0203613Y0121613D01*
X0203613Y0119861D02*
X0200987Y0119861D01*
X0200987Y0120735D02*
X0203613Y0120735D01*
X0203613Y0121609D02*
X0200987Y0121609D01*
X0135987Y0120613D02*
X0135987Y0117987D01*
X0135987Y0120613D02*
X0138613Y0120613D01*
X0138613Y0117987D01*
X0135987Y0117987D01*
X0135987Y0118861D02*
X0138613Y0118861D01*
X0138613Y0119735D02*
X0135987Y0119735D01*
X0135987Y0120609D02*
X0138613Y0120609D01*
X0135987Y0123987D02*
X0135987Y0126613D01*
X0138613Y0126613D01*
X0138613Y0123987D01*
X0135987Y0123987D01*
X0135987Y0124861D02*
X0138613Y0124861D01*
X0138613Y0125735D02*
X0135987Y0125735D01*
X0135987Y0126609D02*
X0138613Y0126609D01*
X0119987Y0126613D02*
X0119987Y0123987D01*
X0119987Y0126613D02*
X0122613Y0126613D01*
X0122613Y0123987D01*
X0119987Y0123987D01*
X0119987Y0124861D02*
X0122613Y0124861D01*
X0122613Y0125735D02*
X0119987Y0125735D01*
X0119987Y0126609D02*
X0122613Y0126609D01*
X0119987Y0120613D02*
X0119987Y0117987D01*
X0119987Y0120613D02*
X0122613Y0120613D01*
X0122613Y0117987D01*
X0119987Y0117987D01*
X0119987Y0118861D02*
X0122613Y0118861D01*
X0122613Y0119735D02*
X0119987Y0119735D01*
X0119987Y0120609D02*
X0122613Y0120609D01*
X0104987Y0120613D02*
X0104987Y0117987D01*
X0104987Y0120613D02*
X0107613Y0120613D01*
X0107613Y0117987D01*
X0104987Y0117987D01*
X0104987Y0118861D02*
X0107613Y0118861D01*
X0107613Y0119735D02*
X0104987Y0119735D01*
X0104987Y0120609D02*
X0107613Y0120609D01*
X0104987Y0123987D02*
X0104987Y0126613D01*
X0107613Y0126613D01*
X0107613Y0123987D01*
X0104987Y0123987D01*
X0104987Y0124861D02*
X0107613Y0124861D01*
X0107613Y0125735D02*
X0104987Y0125735D01*
X0104987Y0126609D02*
X0107613Y0126609D01*
X0033987Y0097613D02*
X0033987Y0094987D01*
X0033987Y0097613D02*
X0036613Y0097613D01*
X0036613Y0094987D01*
X0033987Y0094987D01*
X0033987Y0095861D02*
X0036613Y0095861D01*
X0036613Y0096735D02*
X0033987Y0096735D01*
X0033987Y0097609D02*
X0036613Y0097609D01*
X0033987Y0091613D02*
X0033987Y0088987D01*
X0033987Y0091613D02*
X0036613Y0091613D01*
X0036613Y0088987D01*
X0033987Y0088987D01*
X0033987Y0089861D02*
X0036613Y0089861D01*
X0036613Y0090735D02*
X0033987Y0090735D01*
X0033987Y0091609D02*
X0036613Y0091609D01*
X0026987Y0091613D02*
X0026987Y0088987D01*
X0026987Y0091613D02*
X0029613Y0091613D01*
X0029613Y0088987D01*
X0026987Y0088987D01*
X0026987Y0089861D02*
X0029613Y0089861D01*
X0029613Y0090735D02*
X0026987Y0090735D01*
X0026987Y0091609D02*
X0029613Y0091609D01*
X0026987Y0094987D02*
X0026987Y0097613D01*
X0029613Y0097613D01*
X0029613Y0094987D01*
X0026987Y0094987D01*
X0026987Y0095861D02*
X0029613Y0095861D01*
X0029613Y0096735D02*
X0026987Y0096735D01*
X0026987Y0097609D02*
X0029613Y0097609D01*
X0123987Y0312613D02*
X0126613Y0312613D01*
X0126613Y0309987D01*
X0123987Y0309987D01*
X0123987Y0312613D01*
X0123987Y0310861D02*
X0126613Y0310861D01*
X0126613Y0311735D02*
X0123987Y0311735D01*
X0123987Y0312609D02*
X0126613Y0312609D01*
X0129987Y0312613D02*
X0132613Y0312613D01*
X0132613Y0309987D01*
X0129987Y0309987D01*
X0129987Y0312613D01*
X0129987Y0310861D02*
X0132613Y0310861D01*
X0132613Y0311735D02*
X0129987Y0311735D01*
X0129987Y0312609D02*
X0132613Y0312609D01*
X0139987Y0333613D02*
X0142613Y0333613D01*
X0142613Y0330987D01*
X0139987Y0330987D01*
X0139987Y0333613D01*
X0139987Y0331861D02*
X0142613Y0331861D01*
X0142613Y0332735D02*
X0139987Y0332735D01*
X0139987Y0333609D02*
X0142613Y0333609D01*
X0145987Y0333613D02*
X0148613Y0333613D01*
X0148613Y0330987D01*
X0145987Y0330987D01*
X0145987Y0333613D01*
X0145987Y0331861D02*
X0148613Y0331861D01*
X0148613Y0332735D02*
X0145987Y0332735D01*
X0145987Y0333609D02*
X0148613Y0333609D01*
X0160987Y0330987D02*
X0163613Y0330987D01*
X0160987Y0330987D02*
X0160987Y0333613D01*
X0163613Y0333613D01*
X0163613Y0330987D01*
X0163613Y0331861D02*
X0160987Y0331861D01*
X0160987Y0332735D02*
X0163613Y0332735D01*
X0163613Y0333609D02*
X0160987Y0333609D01*
X0166987Y0330987D02*
X0169613Y0330987D01*
X0166987Y0330987D02*
X0166987Y0333613D01*
X0169613Y0333613D01*
X0169613Y0330987D01*
X0169613Y0331861D02*
X0166987Y0331861D01*
X0166987Y0332735D02*
X0169613Y0332735D01*
X0169613Y0333609D02*
X0166987Y0333609D01*
X0241987Y0328613D02*
X0244613Y0328613D01*
X0244613Y0325987D01*
X0241987Y0325987D01*
X0241987Y0328613D01*
X0241987Y0326861D02*
X0244613Y0326861D01*
X0244613Y0327735D02*
X0241987Y0327735D01*
X0241987Y0328609D02*
X0244613Y0328609D01*
X0247987Y0328613D02*
X0250613Y0328613D01*
X0250613Y0325987D01*
X0247987Y0325987D01*
X0247987Y0328613D01*
X0247987Y0326861D02*
X0250613Y0326861D01*
X0250613Y0327735D02*
X0247987Y0327735D01*
X0247987Y0328609D02*
X0250613Y0328609D01*
X0250613Y0316613D02*
X0247987Y0316613D01*
X0250613Y0316613D02*
X0250613Y0313987D01*
X0247987Y0313987D01*
X0247987Y0316613D01*
X0247987Y0314861D02*
X0250613Y0314861D01*
X0250613Y0315735D02*
X0247987Y0315735D01*
X0247987Y0316609D02*
X0250613Y0316609D01*
X0244613Y0316613D02*
X0241987Y0316613D01*
X0244613Y0316613D02*
X0244613Y0313987D01*
X0241987Y0313987D01*
X0241987Y0316613D01*
X0241987Y0314861D02*
X0244613Y0314861D01*
X0244613Y0315735D02*
X0241987Y0315735D01*
X0241987Y0316609D02*
X0244613Y0316609D01*
X0244613Y0309613D02*
X0241987Y0309613D01*
X0244613Y0309613D02*
X0244613Y0306987D01*
X0241987Y0306987D01*
X0241987Y0309613D01*
X0241987Y0307861D02*
X0244613Y0307861D01*
X0244613Y0308735D02*
X0241987Y0308735D01*
X0241987Y0309609D02*
X0244613Y0309609D01*
X0247987Y0309613D02*
X0250613Y0309613D01*
X0250613Y0306987D01*
X0247987Y0306987D01*
X0247987Y0309613D01*
X0247987Y0307861D02*
X0250613Y0307861D01*
X0250613Y0308735D02*
X0247987Y0308735D01*
X0247987Y0309609D02*
X0250613Y0309609D01*
X0250613Y0302613D02*
X0247987Y0302613D01*
X0250613Y0302613D02*
X0250613Y0299987D01*
X0247987Y0299987D01*
X0247987Y0302613D01*
X0247987Y0300861D02*
X0250613Y0300861D01*
X0250613Y0301735D02*
X0247987Y0301735D01*
X0247987Y0302609D02*
X0250613Y0302609D01*
X0244613Y0302613D02*
X0241987Y0302613D01*
X0244613Y0302613D02*
X0244613Y0299987D01*
X0241987Y0299987D01*
X0241987Y0302613D01*
X0241987Y0300861D02*
X0244613Y0300861D01*
X0244613Y0301735D02*
X0241987Y0301735D01*
X0241987Y0302609D02*
X0244613Y0302609D01*
D12*
X0266300Y0238300D03*
X0272300Y0238300D03*
X0278300Y0238300D03*
X0278300Y0218300D03*
X0272300Y0218300D03*
X0266300Y0218300D03*
X0267300Y0198300D03*
X0273300Y0198300D03*
D13*
X0173603Y0055865D03*
X0069410Y0055796D03*
D14*
X0122166Y0056583D03*
D15*
X0257755Y0297337D02*
X0257755Y0301215D01*
X0257755Y0297337D02*
X0255845Y0297337D01*
X0255845Y0301215D01*
X0257755Y0301215D01*
X0257755Y0297395D02*
X0255845Y0297395D01*
X0255845Y0297453D02*
X0257755Y0297453D01*
X0257755Y0297511D02*
X0255845Y0297511D01*
X0255845Y0297569D02*
X0257755Y0297569D01*
X0257755Y0297627D02*
X0255845Y0297627D01*
X0255845Y0297685D02*
X0257755Y0297685D01*
X0257755Y0297743D02*
X0255845Y0297743D01*
X0255845Y0297801D02*
X0257755Y0297801D01*
X0257755Y0297859D02*
X0255845Y0297859D01*
X0255845Y0297917D02*
X0257755Y0297917D01*
X0257755Y0297975D02*
X0255845Y0297975D01*
X0255845Y0298033D02*
X0257755Y0298033D01*
X0257755Y0298091D02*
X0255845Y0298091D01*
X0255845Y0298149D02*
X0257755Y0298149D01*
X0257755Y0298207D02*
X0255845Y0298207D01*
X0255845Y0298265D02*
X0257755Y0298265D01*
X0257755Y0298323D02*
X0255845Y0298323D01*
X0255845Y0298381D02*
X0257755Y0298381D01*
X0257755Y0298439D02*
X0255845Y0298439D01*
X0255845Y0298497D02*
X0257755Y0298497D01*
X0257755Y0298555D02*
X0255845Y0298555D01*
X0255845Y0298613D02*
X0257755Y0298613D01*
X0257755Y0298671D02*
X0255845Y0298671D01*
X0255845Y0298729D02*
X0257755Y0298729D01*
X0257755Y0298787D02*
X0255845Y0298787D01*
X0255845Y0298845D02*
X0257755Y0298845D01*
X0257755Y0298903D02*
X0255845Y0298903D01*
X0255845Y0298961D02*
X0257755Y0298961D01*
X0257755Y0299019D02*
X0255845Y0299019D01*
X0255845Y0299077D02*
X0257755Y0299077D01*
X0257755Y0299135D02*
X0255845Y0299135D01*
X0255845Y0299193D02*
X0257755Y0299193D01*
X0257755Y0299251D02*
X0255845Y0299251D01*
X0255845Y0299309D02*
X0257755Y0299309D01*
X0257755Y0299367D02*
X0255845Y0299367D01*
X0255845Y0299425D02*
X0257755Y0299425D01*
X0257755Y0299483D02*
X0255845Y0299483D01*
X0255845Y0299541D02*
X0257755Y0299541D01*
X0257755Y0299599D02*
X0255845Y0299599D01*
X0255845Y0299657D02*
X0257755Y0299657D01*
X0257755Y0299715D02*
X0255845Y0299715D01*
X0255845Y0299773D02*
X0257755Y0299773D01*
X0257755Y0299831D02*
X0255845Y0299831D01*
X0255845Y0299889D02*
X0257755Y0299889D01*
X0257755Y0299947D02*
X0255845Y0299947D01*
X0255845Y0300005D02*
X0257755Y0300005D01*
X0257755Y0300063D02*
X0255845Y0300063D01*
X0255845Y0300121D02*
X0257755Y0300121D01*
X0257755Y0300179D02*
X0255845Y0300179D01*
X0255845Y0300237D02*
X0257755Y0300237D01*
X0257755Y0300295D02*
X0255845Y0300295D01*
X0255845Y0300353D02*
X0257755Y0300353D01*
X0257755Y0300411D02*
X0255845Y0300411D01*
X0255845Y0300469D02*
X0257755Y0300469D01*
X0257755Y0300527D02*
X0255845Y0300527D01*
X0255845Y0300585D02*
X0257755Y0300585D01*
X0257755Y0300643D02*
X0255845Y0300643D01*
X0255845Y0300701D02*
X0257755Y0300701D01*
X0257755Y0300759D02*
X0255845Y0300759D01*
X0255845Y0300817D02*
X0257755Y0300817D01*
X0257755Y0300875D02*
X0255845Y0300875D01*
X0255845Y0300933D02*
X0257755Y0300933D01*
X0257755Y0300991D02*
X0255845Y0300991D01*
X0255845Y0301049D02*
X0257755Y0301049D01*
X0257755Y0301107D02*
X0255845Y0301107D01*
X0255845Y0301165D02*
X0257755Y0301165D01*
X0262755Y0301215D02*
X0262755Y0297337D01*
X0260845Y0297337D01*
X0260845Y0301215D01*
X0262755Y0301215D01*
X0262755Y0297395D02*
X0260845Y0297395D01*
X0260845Y0297453D02*
X0262755Y0297453D01*
X0262755Y0297511D02*
X0260845Y0297511D01*
X0260845Y0297569D02*
X0262755Y0297569D01*
X0262755Y0297627D02*
X0260845Y0297627D01*
X0260845Y0297685D02*
X0262755Y0297685D01*
X0262755Y0297743D02*
X0260845Y0297743D01*
X0260845Y0297801D02*
X0262755Y0297801D01*
X0262755Y0297859D02*
X0260845Y0297859D01*
X0260845Y0297917D02*
X0262755Y0297917D01*
X0262755Y0297975D02*
X0260845Y0297975D01*
X0260845Y0298033D02*
X0262755Y0298033D01*
X0262755Y0298091D02*
X0260845Y0298091D01*
X0260845Y0298149D02*
X0262755Y0298149D01*
X0262755Y0298207D02*
X0260845Y0298207D01*
X0260845Y0298265D02*
X0262755Y0298265D01*
X0262755Y0298323D02*
X0260845Y0298323D01*
X0260845Y0298381D02*
X0262755Y0298381D01*
X0262755Y0298439D02*
X0260845Y0298439D01*
X0260845Y0298497D02*
X0262755Y0298497D01*
X0262755Y0298555D02*
X0260845Y0298555D01*
X0260845Y0298613D02*
X0262755Y0298613D01*
X0262755Y0298671D02*
X0260845Y0298671D01*
X0260845Y0298729D02*
X0262755Y0298729D01*
X0262755Y0298787D02*
X0260845Y0298787D01*
X0260845Y0298845D02*
X0262755Y0298845D01*
X0262755Y0298903D02*
X0260845Y0298903D01*
X0260845Y0298961D02*
X0262755Y0298961D01*
X0262755Y0299019D02*
X0260845Y0299019D01*
X0260845Y0299077D02*
X0262755Y0299077D01*
X0262755Y0299135D02*
X0260845Y0299135D01*
X0260845Y0299193D02*
X0262755Y0299193D01*
X0262755Y0299251D02*
X0260845Y0299251D01*
X0260845Y0299309D02*
X0262755Y0299309D01*
X0262755Y0299367D02*
X0260845Y0299367D01*
X0260845Y0299425D02*
X0262755Y0299425D01*
X0262755Y0299483D02*
X0260845Y0299483D01*
X0260845Y0299541D02*
X0262755Y0299541D01*
X0262755Y0299599D02*
X0260845Y0299599D01*
X0260845Y0299657D02*
X0262755Y0299657D01*
X0262755Y0299715D02*
X0260845Y0299715D01*
X0260845Y0299773D02*
X0262755Y0299773D01*
X0262755Y0299831D02*
X0260845Y0299831D01*
X0260845Y0299889D02*
X0262755Y0299889D01*
X0262755Y0299947D02*
X0260845Y0299947D01*
X0260845Y0300005D02*
X0262755Y0300005D01*
X0262755Y0300063D02*
X0260845Y0300063D01*
X0260845Y0300121D02*
X0262755Y0300121D01*
X0262755Y0300179D02*
X0260845Y0300179D01*
X0260845Y0300237D02*
X0262755Y0300237D01*
X0262755Y0300295D02*
X0260845Y0300295D01*
X0260845Y0300353D02*
X0262755Y0300353D01*
X0262755Y0300411D02*
X0260845Y0300411D01*
X0260845Y0300469D02*
X0262755Y0300469D01*
X0262755Y0300527D02*
X0260845Y0300527D01*
X0260845Y0300585D02*
X0262755Y0300585D01*
X0262755Y0300643D02*
X0260845Y0300643D01*
X0260845Y0300701D02*
X0262755Y0300701D01*
X0262755Y0300759D02*
X0260845Y0300759D01*
X0260845Y0300817D02*
X0262755Y0300817D01*
X0262755Y0300875D02*
X0260845Y0300875D01*
X0260845Y0300933D02*
X0262755Y0300933D01*
X0262755Y0300991D02*
X0260845Y0300991D01*
X0260845Y0301049D02*
X0262755Y0301049D01*
X0262755Y0301107D02*
X0260845Y0301107D01*
X0260845Y0301165D02*
X0262755Y0301165D01*
X0267755Y0301215D02*
X0267755Y0297337D01*
X0265845Y0297337D01*
X0265845Y0301215D01*
X0267755Y0301215D01*
X0267755Y0297395D02*
X0265845Y0297395D01*
X0265845Y0297453D02*
X0267755Y0297453D01*
X0267755Y0297511D02*
X0265845Y0297511D01*
X0265845Y0297569D02*
X0267755Y0297569D01*
X0267755Y0297627D02*
X0265845Y0297627D01*
X0265845Y0297685D02*
X0267755Y0297685D01*
X0267755Y0297743D02*
X0265845Y0297743D01*
X0265845Y0297801D02*
X0267755Y0297801D01*
X0267755Y0297859D02*
X0265845Y0297859D01*
X0265845Y0297917D02*
X0267755Y0297917D01*
X0267755Y0297975D02*
X0265845Y0297975D01*
X0265845Y0298033D02*
X0267755Y0298033D01*
X0267755Y0298091D02*
X0265845Y0298091D01*
X0265845Y0298149D02*
X0267755Y0298149D01*
X0267755Y0298207D02*
X0265845Y0298207D01*
X0265845Y0298265D02*
X0267755Y0298265D01*
X0267755Y0298323D02*
X0265845Y0298323D01*
X0265845Y0298381D02*
X0267755Y0298381D01*
X0267755Y0298439D02*
X0265845Y0298439D01*
X0265845Y0298497D02*
X0267755Y0298497D01*
X0267755Y0298555D02*
X0265845Y0298555D01*
X0265845Y0298613D02*
X0267755Y0298613D01*
X0267755Y0298671D02*
X0265845Y0298671D01*
X0265845Y0298729D02*
X0267755Y0298729D01*
X0267755Y0298787D02*
X0265845Y0298787D01*
X0265845Y0298845D02*
X0267755Y0298845D01*
X0267755Y0298903D02*
X0265845Y0298903D01*
X0265845Y0298961D02*
X0267755Y0298961D01*
X0267755Y0299019D02*
X0265845Y0299019D01*
X0265845Y0299077D02*
X0267755Y0299077D01*
X0267755Y0299135D02*
X0265845Y0299135D01*
X0265845Y0299193D02*
X0267755Y0299193D01*
X0267755Y0299251D02*
X0265845Y0299251D01*
X0265845Y0299309D02*
X0267755Y0299309D01*
X0267755Y0299367D02*
X0265845Y0299367D01*
X0265845Y0299425D02*
X0267755Y0299425D01*
X0267755Y0299483D02*
X0265845Y0299483D01*
X0265845Y0299541D02*
X0267755Y0299541D01*
X0267755Y0299599D02*
X0265845Y0299599D01*
X0265845Y0299657D02*
X0267755Y0299657D01*
X0267755Y0299715D02*
X0265845Y0299715D01*
X0265845Y0299773D02*
X0267755Y0299773D01*
X0267755Y0299831D02*
X0265845Y0299831D01*
X0265845Y0299889D02*
X0267755Y0299889D01*
X0267755Y0299947D02*
X0265845Y0299947D01*
X0265845Y0300005D02*
X0267755Y0300005D01*
X0267755Y0300063D02*
X0265845Y0300063D01*
X0265845Y0300121D02*
X0267755Y0300121D01*
X0267755Y0300179D02*
X0265845Y0300179D01*
X0265845Y0300237D02*
X0267755Y0300237D01*
X0267755Y0300295D02*
X0265845Y0300295D01*
X0265845Y0300353D02*
X0267755Y0300353D01*
X0267755Y0300411D02*
X0265845Y0300411D01*
X0265845Y0300469D02*
X0267755Y0300469D01*
X0267755Y0300527D02*
X0265845Y0300527D01*
X0265845Y0300585D02*
X0267755Y0300585D01*
X0267755Y0300643D02*
X0265845Y0300643D01*
X0265845Y0300701D02*
X0267755Y0300701D01*
X0267755Y0300759D02*
X0265845Y0300759D01*
X0265845Y0300817D02*
X0267755Y0300817D01*
X0267755Y0300875D02*
X0265845Y0300875D01*
X0265845Y0300933D02*
X0267755Y0300933D01*
X0267755Y0300991D02*
X0265845Y0300991D01*
X0265845Y0301049D02*
X0267755Y0301049D01*
X0267755Y0301107D02*
X0265845Y0301107D01*
X0265845Y0301165D02*
X0267755Y0301165D01*
X0272755Y0301215D02*
X0272755Y0297337D01*
X0270845Y0297337D01*
X0270845Y0301215D01*
X0272755Y0301215D01*
X0272755Y0297395D02*
X0270845Y0297395D01*
X0270845Y0297453D02*
X0272755Y0297453D01*
X0272755Y0297511D02*
X0270845Y0297511D01*
X0270845Y0297569D02*
X0272755Y0297569D01*
X0272755Y0297627D02*
X0270845Y0297627D01*
X0270845Y0297685D02*
X0272755Y0297685D01*
X0272755Y0297743D02*
X0270845Y0297743D01*
X0270845Y0297801D02*
X0272755Y0297801D01*
X0272755Y0297859D02*
X0270845Y0297859D01*
X0270845Y0297917D02*
X0272755Y0297917D01*
X0272755Y0297975D02*
X0270845Y0297975D01*
X0270845Y0298033D02*
X0272755Y0298033D01*
X0272755Y0298091D02*
X0270845Y0298091D01*
X0270845Y0298149D02*
X0272755Y0298149D01*
X0272755Y0298207D02*
X0270845Y0298207D01*
X0270845Y0298265D02*
X0272755Y0298265D01*
X0272755Y0298323D02*
X0270845Y0298323D01*
X0270845Y0298381D02*
X0272755Y0298381D01*
X0272755Y0298439D02*
X0270845Y0298439D01*
X0270845Y0298497D02*
X0272755Y0298497D01*
X0272755Y0298555D02*
X0270845Y0298555D01*
X0270845Y0298613D02*
X0272755Y0298613D01*
X0272755Y0298671D02*
X0270845Y0298671D01*
X0270845Y0298729D02*
X0272755Y0298729D01*
X0272755Y0298787D02*
X0270845Y0298787D01*
X0270845Y0298845D02*
X0272755Y0298845D01*
X0272755Y0298903D02*
X0270845Y0298903D01*
X0270845Y0298961D02*
X0272755Y0298961D01*
X0272755Y0299019D02*
X0270845Y0299019D01*
X0270845Y0299077D02*
X0272755Y0299077D01*
X0272755Y0299135D02*
X0270845Y0299135D01*
X0270845Y0299193D02*
X0272755Y0299193D01*
X0272755Y0299251D02*
X0270845Y0299251D01*
X0270845Y0299309D02*
X0272755Y0299309D01*
X0272755Y0299367D02*
X0270845Y0299367D01*
X0270845Y0299425D02*
X0272755Y0299425D01*
X0272755Y0299483D02*
X0270845Y0299483D01*
X0270845Y0299541D02*
X0272755Y0299541D01*
X0272755Y0299599D02*
X0270845Y0299599D01*
X0270845Y0299657D02*
X0272755Y0299657D01*
X0272755Y0299715D02*
X0270845Y0299715D01*
X0270845Y0299773D02*
X0272755Y0299773D01*
X0272755Y0299831D02*
X0270845Y0299831D01*
X0270845Y0299889D02*
X0272755Y0299889D01*
X0272755Y0299947D02*
X0270845Y0299947D01*
X0270845Y0300005D02*
X0272755Y0300005D01*
X0272755Y0300063D02*
X0270845Y0300063D01*
X0270845Y0300121D02*
X0272755Y0300121D01*
X0272755Y0300179D02*
X0270845Y0300179D01*
X0270845Y0300237D02*
X0272755Y0300237D01*
X0272755Y0300295D02*
X0270845Y0300295D01*
X0270845Y0300353D02*
X0272755Y0300353D01*
X0272755Y0300411D02*
X0270845Y0300411D01*
X0270845Y0300469D02*
X0272755Y0300469D01*
X0272755Y0300527D02*
X0270845Y0300527D01*
X0270845Y0300585D02*
X0272755Y0300585D01*
X0272755Y0300643D02*
X0270845Y0300643D01*
X0270845Y0300701D02*
X0272755Y0300701D01*
X0272755Y0300759D02*
X0270845Y0300759D01*
X0270845Y0300817D02*
X0272755Y0300817D01*
X0272755Y0300875D02*
X0270845Y0300875D01*
X0270845Y0300933D02*
X0272755Y0300933D01*
X0272755Y0300991D02*
X0270845Y0300991D01*
X0270845Y0301049D02*
X0272755Y0301049D01*
X0272755Y0301107D02*
X0270845Y0301107D01*
X0270845Y0301165D02*
X0272755Y0301165D01*
X0272755Y0319385D02*
X0272755Y0323263D01*
X0272755Y0319385D02*
X0270845Y0319385D01*
X0270845Y0323263D01*
X0272755Y0323263D01*
X0272755Y0319443D02*
X0270845Y0319443D01*
X0270845Y0319501D02*
X0272755Y0319501D01*
X0272755Y0319559D02*
X0270845Y0319559D01*
X0270845Y0319617D02*
X0272755Y0319617D01*
X0272755Y0319675D02*
X0270845Y0319675D01*
X0270845Y0319733D02*
X0272755Y0319733D01*
X0272755Y0319791D02*
X0270845Y0319791D01*
X0270845Y0319849D02*
X0272755Y0319849D01*
X0272755Y0319907D02*
X0270845Y0319907D01*
X0270845Y0319965D02*
X0272755Y0319965D01*
X0272755Y0320023D02*
X0270845Y0320023D01*
X0270845Y0320081D02*
X0272755Y0320081D01*
X0272755Y0320139D02*
X0270845Y0320139D01*
X0270845Y0320197D02*
X0272755Y0320197D01*
X0272755Y0320255D02*
X0270845Y0320255D01*
X0270845Y0320313D02*
X0272755Y0320313D01*
X0272755Y0320371D02*
X0270845Y0320371D01*
X0270845Y0320429D02*
X0272755Y0320429D01*
X0272755Y0320487D02*
X0270845Y0320487D01*
X0270845Y0320545D02*
X0272755Y0320545D01*
X0272755Y0320603D02*
X0270845Y0320603D01*
X0270845Y0320661D02*
X0272755Y0320661D01*
X0272755Y0320719D02*
X0270845Y0320719D01*
X0270845Y0320777D02*
X0272755Y0320777D01*
X0272755Y0320835D02*
X0270845Y0320835D01*
X0270845Y0320893D02*
X0272755Y0320893D01*
X0272755Y0320951D02*
X0270845Y0320951D01*
X0270845Y0321009D02*
X0272755Y0321009D01*
X0272755Y0321067D02*
X0270845Y0321067D01*
X0270845Y0321125D02*
X0272755Y0321125D01*
X0272755Y0321183D02*
X0270845Y0321183D01*
X0270845Y0321241D02*
X0272755Y0321241D01*
X0272755Y0321299D02*
X0270845Y0321299D01*
X0270845Y0321357D02*
X0272755Y0321357D01*
X0272755Y0321415D02*
X0270845Y0321415D01*
X0270845Y0321473D02*
X0272755Y0321473D01*
X0272755Y0321531D02*
X0270845Y0321531D01*
X0270845Y0321589D02*
X0272755Y0321589D01*
X0272755Y0321647D02*
X0270845Y0321647D01*
X0270845Y0321705D02*
X0272755Y0321705D01*
X0272755Y0321763D02*
X0270845Y0321763D01*
X0270845Y0321821D02*
X0272755Y0321821D01*
X0272755Y0321879D02*
X0270845Y0321879D01*
X0270845Y0321937D02*
X0272755Y0321937D01*
X0272755Y0321995D02*
X0270845Y0321995D01*
X0270845Y0322053D02*
X0272755Y0322053D01*
X0272755Y0322111D02*
X0270845Y0322111D01*
X0270845Y0322169D02*
X0272755Y0322169D01*
X0272755Y0322227D02*
X0270845Y0322227D01*
X0270845Y0322285D02*
X0272755Y0322285D01*
X0272755Y0322343D02*
X0270845Y0322343D01*
X0270845Y0322401D02*
X0272755Y0322401D01*
X0272755Y0322459D02*
X0270845Y0322459D01*
X0270845Y0322517D02*
X0272755Y0322517D01*
X0272755Y0322575D02*
X0270845Y0322575D01*
X0270845Y0322633D02*
X0272755Y0322633D01*
X0272755Y0322691D02*
X0270845Y0322691D01*
X0270845Y0322749D02*
X0272755Y0322749D01*
X0272755Y0322807D02*
X0270845Y0322807D01*
X0270845Y0322865D02*
X0272755Y0322865D01*
X0272755Y0322923D02*
X0270845Y0322923D01*
X0270845Y0322981D02*
X0272755Y0322981D01*
X0272755Y0323039D02*
X0270845Y0323039D01*
X0270845Y0323097D02*
X0272755Y0323097D01*
X0272755Y0323155D02*
X0270845Y0323155D01*
X0270845Y0323213D02*
X0272755Y0323213D01*
X0267755Y0323263D02*
X0267755Y0319385D01*
X0265845Y0319385D01*
X0265845Y0323263D01*
X0267755Y0323263D01*
X0267755Y0319443D02*
X0265845Y0319443D01*
X0265845Y0319501D02*
X0267755Y0319501D01*
X0267755Y0319559D02*
X0265845Y0319559D01*
X0265845Y0319617D02*
X0267755Y0319617D01*
X0267755Y0319675D02*
X0265845Y0319675D01*
X0265845Y0319733D02*
X0267755Y0319733D01*
X0267755Y0319791D02*
X0265845Y0319791D01*
X0265845Y0319849D02*
X0267755Y0319849D01*
X0267755Y0319907D02*
X0265845Y0319907D01*
X0265845Y0319965D02*
X0267755Y0319965D01*
X0267755Y0320023D02*
X0265845Y0320023D01*
X0265845Y0320081D02*
X0267755Y0320081D01*
X0267755Y0320139D02*
X0265845Y0320139D01*
X0265845Y0320197D02*
X0267755Y0320197D01*
X0267755Y0320255D02*
X0265845Y0320255D01*
X0265845Y0320313D02*
X0267755Y0320313D01*
X0267755Y0320371D02*
X0265845Y0320371D01*
X0265845Y0320429D02*
X0267755Y0320429D01*
X0267755Y0320487D02*
X0265845Y0320487D01*
X0265845Y0320545D02*
X0267755Y0320545D01*
X0267755Y0320603D02*
X0265845Y0320603D01*
X0265845Y0320661D02*
X0267755Y0320661D01*
X0267755Y0320719D02*
X0265845Y0320719D01*
X0265845Y0320777D02*
X0267755Y0320777D01*
X0267755Y0320835D02*
X0265845Y0320835D01*
X0265845Y0320893D02*
X0267755Y0320893D01*
X0267755Y0320951D02*
X0265845Y0320951D01*
X0265845Y0321009D02*
X0267755Y0321009D01*
X0267755Y0321067D02*
X0265845Y0321067D01*
X0265845Y0321125D02*
X0267755Y0321125D01*
X0267755Y0321183D02*
X0265845Y0321183D01*
X0265845Y0321241D02*
X0267755Y0321241D01*
X0267755Y0321299D02*
X0265845Y0321299D01*
X0265845Y0321357D02*
X0267755Y0321357D01*
X0267755Y0321415D02*
X0265845Y0321415D01*
X0265845Y0321473D02*
X0267755Y0321473D01*
X0267755Y0321531D02*
X0265845Y0321531D01*
X0265845Y0321589D02*
X0267755Y0321589D01*
X0267755Y0321647D02*
X0265845Y0321647D01*
X0265845Y0321705D02*
X0267755Y0321705D01*
X0267755Y0321763D02*
X0265845Y0321763D01*
X0265845Y0321821D02*
X0267755Y0321821D01*
X0267755Y0321879D02*
X0265845Y0321879D01*
X0265845Y0321937D02*
X0267755Y0321937D01*
X0267755Y0321995D02*
X0265845Y0321995D01*
X0265845Y0322053D02*
X0267755Y0322053D01*
X0267755Y0322111D02*
X0265845Y0322111D01*
X0265845Y0322169D02*
X0267755Y0322169D01*
X0267755Y0322227D02*
X0265845Y0322227D01*
X0265845Y0322285D02*
X0267755Y0322285D01*
X0267755Y0322343D02*
X0265845Y0322343D01*
X0265845Y0322401D02*
X0267755Y0322401D01*
X0267755Y0322459D02*
X0265845Y0322459D01*
X0265845Y0322517D02*
X0267755Y0322517D01*
X0267755Y0322575D02*
X0265845Y0322575D01*
X0265845Y0322633D02*
X0267755Y0322633D01*
X0267755Y0322691D02*
X0265845Y0322691D01*
X0265845Y0322749D02*
X0267755Y0322749D01*
X0267755Y0322807D02*
X0265845Y0322807D01*
X0265845Y0322865D02*
X0267755Y0322865D01*
X0267755Y0322923D02*
X0265845Y0322923D01*
X0265845Y0322981D02*
X0267755Y0322981D01*
X0267755Y0323039D02*
X0265845Y0323039D01*
X0265845Y0323097D02*
X0267755Y0323097D01*
X0267755Y0323155D02*
X0265845Y0323155D01*
X0265845Y0323213D02*
X0267755Y0323213D01*
X0262755Y0323263D02*
X0262755Y0319385D01*
X0260845Y0319385D01*
X0260845Y0323263D01*
X0262755Y0323263D01*
X0262755Y0319443D02*
X0260845Y0319443D01*
X0260845Y0319501D02*
X0262755Y0319501D01*
X0262755Y0319559D02*
X0260845Y0319559D01*
X0260845Y0319617D02*
X0262755Y0319617D01*
X0262755Y0319675D02*
X0260845Y0319675D01*
X0260845Y0319733D02*
X0262755Y0319733D01*
X0262755Y0319791D02*
X0260845Y0319791D01*
X0260845Y0319849D02*
X0262755Y0319849D01*
X0262755Y0319907D02*
X0260845Y0319907D01*
X0260845Y0319965D02*
X0262755Y0319965D01*
X0262755Y0320023D02*
X0260845Y0320023D01*
X0260845Y0320081D02*
X0262755Y0320081D01*
X0262755Y0320139D02*
X0260845Y0320139D01*
X0260845Y0320197D02*
X0262755Y0320197D01*
X0262755Y0320255D02*
X0260845Y0320255D01*
X0260845Y0320313D02*
X0262755Y0320313D01*
X0262755Y0320371D02*
X0260845Y0320371D01*
X0260845Y0320429D02*
X0262755Y0320429D01*
X0262755Y0320487D02*
X0260845Y0320487D01*
X0260845Y0320545D02*
X0262755Y0320545D01*
X0262755Y0320603D02*
X0260845Y0320603D01*
X0260845Y0320661D02*
X0262755Y0320661D01*
X0262755Y0320719D02*
X0260845Y0320719D01*
X0260845Y0320777D02*
X0262755Y0320777D01*
X0262755Y0320835D02*
X0260845Y0320835D01*
X0260845Y0320893D02*
X0262755Y0320893D01*
X0262755Y0320951D02*
X0260845Y0320951D01*
X0260845Y0321009D02*
X0262755Y0321009D01*
X0262755Y0321067D02*
X0260845Y0321067D01*
X0260845Y0321125D02*
X0262755Y0321125D01*
X0262755Y0321183D02*
X0260845Y0321183D01*
X0260845Y0321241D02*
X0262755Y0321241D01*
X0262755Y0321299D02*
X0260845Y0321299D01*
X0260845Y0321357D02*
X0262755Y0321357D01*
X0262755Y0321415D02*
X0260845Y0321415D01*
X0260845Y0321473D02*
X0262755Y0321473D01*
X0262755Y0321531D02*
X0260845Y0321531D01*
X0260845Y0321589D02*
X0262755Y0321589D01*
X0262755Y0321647D02*
X0260845Y0321647D01*
X0260845Y0321705D02*
X0262755Y0321705D01*
X0262755Y0321763D02*
X0260845Y0321763D01*
X0260845Y0321821D02*
X0262755Y0321821D01*
X0262755Y0321879D02*
X0260845Y0321879D01*
X0260845Y0321937D02*
X0262755Y0321937D01*
X0262755Y0321995D02*
X0260845Y0321995D01*
X0260845Y0322053D02*
X0262755Y0322053D01*
X0262755Y0322111D02*
X0260845Y0322111D01*
X0260845Y0322169D02*
X0262755Y0322169D01*
X0262755Y0322227D02*
X0260845Y0322227D01*
X0260845Y0322285D02*
X0262755Y0322285D01*
X0262755Y0322343D02*
X0260845Y0322343D01*
X0260845Y0322401D02*
X0262755Y0322401D01*
X0262755Y0322459D02*
X0260845Y0322459D01*
X0260845Y0322517D02*
X0262755Y0322517D01*
X0262755Y0322575D02*
X0260845Y0322575D01*
X0260845Y0322633D02*
X0262755Y0322633D01*
X0262755Y0322691D02*
X0260845Y0322691D01*
X0260845Y0322749D02*
X0262755Y0322749D01*
X0262755Y0322807D02*
X0260845Y0322807D01*
X0260845Y0322865D02*
X0262755Y0322865D01*
X0262755Y0322923D02*
X0260845Y0322923D01*
X0260845Y0322981D02*
X0262755Y0322981D01*
X0262755Y0323039D02*
X0260845Y0323039D01*
X0260845Y0323097D02*
X0262755Y0323097D01*
X0262755Y0323155D02*
X0260845Y0323155D01*
X0260845Y0323213D02*
X0262755Y0323213D01*
X0257755Y0323263D02*
X0257755Y0319385D01*
X0255845Y0319385D01*
X0255845Y0323263D01*
X0257755Y0323263D01*
X0257755Y0319443D02*
X0255845Y0319443D01*
X0255845Y0319501D02*
X0257755Y0319501D01*
X0257755Y0319559D02*
X0255845Y0319559D01*
X0255845Y0319617D02*
X0257755Y0319617D01*
X0257755Y0319675D02*
X0255845Y0319675D01*
X0255845Y0319733D02*
X0257755Y0319733D01*
X0257755Y0319791D02*
X0255845Y0319791D01*
X0255845Y0319849D02*
X0257755Y0319849D01*
X0257755Y0319907D02*
X0255845Y0319907D01*
X0255845Y0319965D02*
X0257755Y0319965D01*
X0257755Y0320023D02*
X0255845Y0320023D01*
X0255845Y0320081D02*
X0257755Y0320081D01*
X0257755Y0320139D02*
X0255845Y0320139D01*
X0255845Y0320197D02*
X0257755Y0320197D01*
X0257755Y0320255D02*
X0255845Y0320255D01*
X0255845Y0320313D02*
X0257755Y0320313D01*
X0257755Y0320371D02*
X0255845Y0320371D01*
X0255845Y0320429D02*
X0257755Y0320429D01*
X0257755Y0320487D02*
X0255845Y0320487D01*
X0255845Y0320545D02*
X0257755Y0320545D01*
X0257755Y0320603D02*
X0255845Y0320603D01*
X0255845Y0320661D02*
X0257755Y0320661D01*
X0257755Y0320719D02*
X0255845Y0320719D01*
X0255845Y0320777D02*
X0257755Y0320777D01*
X0257755Y0320835D02*
X0255845Y0320835D01*
X0255845Y0320893D02*
X0257755Y0320893D01*
X0257755Y0320951D02*
X0255845Y0320951D01*
X0255845Y0321009D02*
X0257755Y0321009D01*
X0257755Y0321067D02*
X0255845Y0321067D01*
X0255845Y0321125D02*
X0257755Y0321125D01*
X0257755Y0321183D02*
X0255845Y0321183D01*
X0255845Y0321241D02*
X0257755Y0321241D01*
X0257755Y0321299D02*
X0255845Y0321299D01*
X0255845Y0321357D02*
X0257755Y0321357D01*
X0257755Y0321415D02*
X0255845Y0321415D01*
X0255845Y0321473D02*
X0257755Y0321473D01*
X0257755Y0321531D02*
X0255845Y0321531D01*
X0255845Y0321589D02*
X0257755Y0321589D01*
X0257755Y0321647D02*
X0255845Y0321647D01*
X0255845Y0321705D02*
X0257755Y0321705D01*
X0257755Y0321763D02*
X0255845Y0321763D01*
X0255845Y0321821D02*
X0257755Y0321821D01*
X0257755Y0321879D02*
X0255845Y0321879D01*
X0255845Y0321937D02*
X0257755Y0321937D01*
X0257755Y0321995D02*
X0255845Y0321995D01*
X0255845Y0322053D02*
X0257755Y0322053D01*
X0257755Y0322111D02*
X0255845Y0322111D01*
X0255845Y0322169D02*
X0257755Y0322169D01*
X0257755Y0322227D02*
X0255845Y0322227D01*
X0255845Y0322285D02*
X0257755Y0322285D01*
X0257755Y0322343D02*
X0255845Y0322343D01*
X0255845Y0322401D02*
X0257755Y0322401D01*
X0257755Y0322459D02*
X0255845Y0322459D01*
X0255845Y0322517D02*
X0257755Y0322517D01*
X0257755Y0322575D02*
X0255845Y0322575D01*
X0255845Y0322633D02*
X0257755Y0322633D01*
X0257755Y0322691D02*
X0255845Y0322691D01*
X0255845Y0322749D02*
X0257755Y0322749D01*
X0257755Y0322807D02*
X0255845Y0322807D01*
X0255845Y0322865D02*
X0257755Y0322865D01*
X0257755Y0322923D02*
X0255845Y0322923D01*
X0255845Y0322981D02*
X0257755Y0322981D01*
X0257755Y0323039D02*
X0255845Y0323039D01*
X0255845Y0323097D02*
X0257755Y0323097D01*
X0257755Y0323155D02*
X0255845Y0323155D01*
X0255845Y0323213D02*
X0257755Y0323213D01*
D16*
X0273828Y0108875D03*
X0273828Y0102969D03*
X0273828Y0097064D03*
X0273828Y0091158D03*
X0273828Y0085253D03*
X0273828Y0079347D03*
X0273828Y0073442D03*
X0273828Y0067536D03*
X0273828Y0061631D03*
X0273828Y0055725D03*
X0214772Y0055725D03*
X0214772Y0061631D03*
X0214772Y0067536D03*
X0214772Y0073442D03*
X0214772Y0079347D03*
X0214772Y0085253D03*
X0214772Y0091158D03*
X0214772Y0097064D03*
X0214772Y0102969D03*
X0214772Y0108875D03*
D17*
X0179800Y0277800D03*
X0179800Y0282800D03*
X0179800Y0287800D03*
X0179800Y0292800D03*
X0179800Y0297800D03*
X0179800Y0302800D03*
X0179800Y0307800D03*
X0179800Y0312800D03*
X0142800Y0312800D03*
X0142800Y0307800D03*
X0142800Y0302800D03*
X0142800Y0297800D03*
X0142800Y0292800D03*
X0142800Y0287800D03*
X0142800Y0282800D03*
X0142800Y0277800D03*
M02*
