%
M48
M72
T01C0.01378
T02C0.02362
T03C0.03150
T04C0.03937
T05C0.05906
T06C0.06299
T07C0.09843
T08C0.11811
T09C0.25000
%
T01
X21300Y23300
X84206Y33300
X126206Y47800
X138206Y36800
X150206Y48800
X138206Y59800
X167300Y98300
X167300Y118300
X145300Y113300
X129300Y113300
X129300Y135300
X81300Y178300
X67800Y178300
X45300Y178800
X38800Y178800
X28300Y102300
X107300Y115300
X179300Y140300
X179300Y154800
X238300Y132300
X248300Y118300
X248300Y109300
X258300Y118300
X276300Y118300
X276300Y103300
X290300Y103300
X305300Y103300
X297300Y118300
X248300Y79300
X248300Y67300
X260300Y58300
X290300Y58300
X290300Y54300
X290300Y49300
X299300Y49300
X308300Y49300
X316300Y49300
X324300Y49300
X332300Y49300
X340300Y49300
X348300Y49300
X356300Y49300
X364300Y49300
X372300Y49800
X372300Y62300
X364300Y62300
X356300Y62300
X348300Y62300
X340300Y62300
X332300Y62300
X324300Y62300
X316300Y62300
X308300Y62300
X305300Y79300
X290300Y79300
X290300Y62300
X357300Y134300
X300300Y195300
X300300Y201800
X287300Y195300
X261300Y212300
X266300Y226300
X272300Y227300
X262800Y248800
X268040Y255040
X273300Y259300
X287300Y249300
X268300Y291300
X259300Y291300
X287300Y305300
X287300Y320300
X287300Y335300
X275300Y361300
X260300Y361300
X240300Y349300
X230300Y364300
X225300Y364300
X220300Y364300
X210300Y349300
X215300Y332300
X234158Y325300
X234158Y315300
X179300Y318300
X170300Y317300
X173300Y332300
X143300Y318300
X137800Y332096
X140300Y349300
X113300Y359300
X42300Y318300
X42300Y273300
X42300Y221300
X143300Y245300
X143300Y234300
X143300Y222300
X179300Y222300
X179300Y234300
X179300Y245300
X201300Y245300
X201300Y234300
X201300Y222300
X179300Y273300
X143300Y273300
X20300Y395300
X331300Y384300
X339300Y384300
X357300Y395300
X406300Y134300
X248300Y97300
X229300Y97300
X229300Y79300
X229300Y51300
X194206Y33800
X406300Y24300
T02
X135300Y343757
X135300Y353757
X145300Y353757
X145300Y343757
X155300Y343757
X155300Y353757
X165300Y353757
X175300Y353757
X175300Y343757
X165300Y343757
X185300Y343757
X185300Y353757
X195300Y353757
X205300Y353757
X205300Y343757
X195300Y343757
X215300Y343757
X215300Y353757
X225300Y353757
X235300Y353757
X245300Y353757
X245300Y343757
X235300Y343757
X225300Y343757
X255300Y343757
X255300Y353757
X265300Y353757
X275300Y353757
X275300Y343757
X265300Y343757
X285300Y343757
X285300Y353757
X295300Y353757
X305300Y353757
X305300Y343757
X295300Y343757
X315300Y343757
X315300Y353757
X325300Y353757
X325300Y343757
T03
X49300Y116300
X49300Y106300
X49300Y96300
X49300Y86300
T04
X81158Y386253
X91158Y386253
X101158Y386253
X111158Y386253
X121158Y386253
X131158Y386253
X141158Y386253
X151158Y386253
X161158Y386253
X171158Y386253
X181158Y386253
X191158Y386253
X201158Y386253
X211158Y386253
X221158Y386253
X231158Y386253
X241158Y386253
X251158Y386253
X261158Y386253
X271158Y386253
X217552Y88166
X217552Y78166
X217552Y68166
X217552Y58166
X217552Y48166
X217552Y38166
X217552Y98166
X217552Y108166
X217552Y118166
X241316Y144914
X251316Y144914
X261316Y144914
X91237Y144914
X81237Y144914
X71237Y144914
T05
X392800Y55867
T06
X382800Y65867
X402800Y65867
X402800Y45867
X382800Y45867
T07
X116127Y348757
X116127Y258206
X116127Y155843
X344473Y155843
X344473Y258206
X344473Y348757
T08
X29820Y373851
X29820Y157316
X270269Y85646
X333111Y118166
X321158Y157316
X333111Y38166
X321158Y373851
T09
X47308Y39343
X385300Y108749
M30
